<mxfile host="app.diagrams.net" modified="2024-01-19T08:12:11.531Z" agent="Mozilla/5.0 (Windows NT 10.0; Win64; x64) AppleWebKit/537.36 (KHTML, like Gecko) Chrome/120.0.0.0 Safari/537.36" etag="5-bJ1MQOCYv6XWIbP6TK" version="22.1.21" type="github">
  <diagram id="C5RBs43oDa-KdzZeNtuy" name="Page-1">
    <mxGraphModel dx="3603" dy="893" grid="1" gridSize="10" guides="1" tooltips="1" connect="1" arrows="1" fold="1" page="1" pageScale="1" pageWidth="827" pageHeight="1169" math="0" shadow="0">
      <root>
        <mxCell id="WIyWlLk6GJQsqaUBKTNV-0" />
        <mxCell id="WIyWlLk6GJQsqaUBKTNV-1" parent="WIyWlLk6GJQsqaUBKTNV-0" />
        <mxCell id="AzQNed1N8ElNNBdo4Fju-8" style="edgeStyle=orthogonalEdgeStyle;rounded=0;orthogonalLoop=1;jettySize=auto;html=1;exitX=0.5;exitY=1;exitDx=0;exitDy=0;entryX=0.5;entryY=0;entryDx=0;entryDy=0;" parent="WIyWlLk6GJQsqaUBKTNV-1" source="AzQNed1N8ElNNBdo4Fju-0" target="AzQNed1N8ElNNBdo4Fju-7" edge="1">
          <mxGeometry relative="1" as="geometry" />
        </mxCell>
        <mxCell id="AzQNed1N8ElNNBdo4Fju-0" value="&lt;div style=&quot;&quot;&gt;&lt;span style=&quot;background-color: initial;&quot;&gt;已知：projMethod，crv，srf，tol&lt;/span&gt;&lt;/div&gt;" style="rounded=1;whiteSpace=wrap;html=1;fontSize=12;glass=0;strokeWidth=1;shadow=0;align=center;" parent="WIyWlLk6GJQsqaUBKTNV-1" vertex="1">
          <mxGeometry x="-130" y="690" width="140" height="40" as="geometry" />
        </mxCell>
        <mxCell id="AzQNed1N8ElNNBdo4Fju-2" value="&lt;span style=&quot;font-size: 11px;&quot;&gt;Parasolid没有提供投影曲线是否保持与原曲线同样的参数化的选项（无keepParam）&lt;/span&gt;" style="rounded=0;whiteSpace=wrap;html=1;gradientColor=default;fillColor=none;strokeColor=none;fontSize=9;align=left;" parent="WIyWlLk6GJQsqaUBKTNV-1" vertex="1">
          <mxGeometry x="-300" y="720" width="160" height="40" as="geometry" />
        </mxCell>
        <mxCell id="AzQNed1N8ElNNBdo4Fju-22" style="edgeStyle=orthogonalEdgeStyle;rounded=0;orthogonalLoop=1;jettySize=auto;html=1;entryX=0.5;entryY=0;entryDx=0;entryDy=0;" parent="WIyWlLk6GJQsqaUBKTNV-1" source="AzQNed1N8ElNNBdo4Fju-7" target="AzQNed1N8ElNNBdo4Fju-11" edge="1">
          <mxGeometry relative="1" as="geometry" />
        </mxCell>
        <mxCell id="AzQNed1N8ElNNBdo4Fju-23" style="edgeStyle=orthogonalEdgeStyle;rounded=0;orthogonalLoop=1;jettySize=auto;html=1;exitX=0.5;exitY=1;exitDx=0;exitDy=0;entryX=0.5;entryY=0;entryDx=0;entryDy=0;" parent="WIyWlLk6GJQsqaUBKTNV-1" source="AzQNed1N8ElNNBdo4Fju-7" target="AzQNed1N8ElNNBdo4Fju-12" edge="1">
          <mxGeometry relative="1" as="geometry" />
        </mxCell>
        <mxCell id="AzQNed1N8ElNNBdo4Fju-24" style="edgeStyle=orthogonalEdgeStyle;rounded=0;orthogonalLoop=1;jettySize=auto;html=1;exitX=1;exitY=0.5;exitDx=0;exitDy=0;entryX=0.5;entryY=0;entryDx=0;entryDy=0;" parent="WIyWlLk6GJQsqaUBKTNV-1" source="AzQNed1N8ElNNBdo4Fju-7" target="AzQNed1N8ElNNBdo4Fju-13" edge="1">
          <mxGeometry relative="1" as="geometry" />
        </mxCell>
        <mxCell id="AzQNed1N8ElNNBdo4Fju-7" value="srf类型" style="rhombus;whiteSpace=wrap;html=1;shadow=0;fontFamily=Helvetica;fontSize=12;align=center;strokeWidth=1;spacing=6;spacingTop=-4;" parent="WIyWlLk6GJQsqaUBKTNV-1" vertex="1">
          <mxGeometry x="-105" y="750" width="90" height="45" as="geometry" />
        </mxCell>
        <mxCell id="AzQNed1N8ElNNBdo4Fju-184" value="" style="edgeStyle=orthogonalEdgeStyle;rounded=0;orthogonalLoop=1;jettySize=auto;html=1;" parent="WIyWlLk6GJQsqaUBKTNV-1" source="AzQNed1N8ElNNBdo4Fju-11" target="AzQNed1N8ElNNBdo4Fju-183" edge="1">
          <mxGeometry relative="1" as="geometry" />
        </mxCell>
        <mxCell id="AzQNed1N8ElNNBdo4Fju-11" value="平面" style="rounded=1;whiteSpace=wrap;html=1;fontSize=12;glass=0;strokeWidth=1;shadow=0;" parent="WIyWlLk6GJQsqaUBKTNV-1" vertex="1">
          <mxGeometry x="-497" y="810" width="70" height="40" as="geometry" />
        </mxCell>
        <mxCell id="AzQNed1N8ElNNBdo4Fju-178" value="" style="edgeStyle=orthogonalEdgeStyle;rounded=0;orthogonalLoop=1;jettySize=auto;html=1;" parent="WIyWlLk6GJQsqaUBKTNV-1" source="AzQNed1N8ElNNBdo4Fju-12" target="AzQNed1N8ElNNBdo4Fju-177" edge="1">
          <mxGeometry relative="1" as="geometry" />
        </mxCell>
        <mxCell id="AzQNed1N8ElNNBdo4Fju-12" value="其他" style="rounded=1;whiteSpace=wrap;html=1;fontSize=12;glass=0;strokeWidth=1;shadow=0;" parent="WIyWlLk6GJQsqaUBKTNV-1" vertex="1">
          <mxGeometry x="-95" y="810" width="70" height="40" as="geometry" />
        </mxCell>
        <mxCell id="12BlZwvMtsUTy5BmQ8GU-24" style="edgeStyle=orthogonalEdgeStyle;rounded=0;orthogonalLoop=1;jettySize=auto;html=1;exitX=1;exitY=0.5;exitDx=0;exitDy=0;entryX=0;entryY=0.5;entryDx=0;entryDy=0;" edge="1" parent="WIyWlLk6GJQsqaUBKTNV-1" source="AzQNed1N8ElNNBdo4Fju-13" target="AzQNed1N8ElNNBdo4Fju-179">
          <mxGeometry relative="1" as="geometry" />
        </mxCell>
        <mxCell id="12BlZwvMtsUTy5BmQ8GU-25" style="edgeStyle=orthogonalEdgeStyle;rounded=0;orthogonalLoop=1;jettySize=auto;html=1;exitX=1;exitY=0.5;exitDx=0;exitDy=0;entryX=0;entryY=0.5;entryDx=0;entryDy=0;" edge="1" parent="WIyWlLk6GJQsqaUBKTNV-1" source="AzQNed1N8ElNNBdo4Fju-13" target="AzQNed1N8ElNNBdo4Fju-180">
          <mxGeometry relative="1" as="geometry" />
        </mxCell>
        <mxCell id="12BlZwvMtsUTy5BmQ8GU-77" style="edgeStyle=orthogonalEdgeStyle;rounded=0;orthogonalLoop=1;jettySize=auto;html=1;exitX=1;exitY=0.5;exitDx=0;exitDy=0;entryX=0;entryY=0.5;entryDx=0;entryDy=0;" edge="1" parent="WIyWlLk6GJQsqaUBKTNV-1" source="AzQNed1N8ElNNBdo4Fju-13" target="12BlZwvMtsUTy5BmQ8GU-64">
          <mxGeometry relative="1" as="geometry" />
        </mxCell>
        <mxCell id="12BlZwvMtsUTy5BmQ8GU-114" style="edgeStyle=orthogonalEdgeStyle;rounded=0;orthogonalLoop=1;jettySize=auto;html=1;exitX=1;exitY=0.5;exitDx=0;exitDy=0;entryX=0;entryY=0.5;entryDx=0;entryDy=0;" edge="1" parent="WIyWlLk6GJQsqaUBKTNV-1" source="AzQNed1N8ElNNBdo4Fju-13" target="12BlZwvMtsUTy5BmQ8GU-113">
          <mxGeometry relative="1" as="geometry" />
        </mxCell>
        <mxCell id="AzQNed1N8ElNNBdo4Fju-13" value="二次曲面" style="rounded=1;whiteSpace=wrap;html=1;fontSize=12;glass=0;strokeWidth=1;shadow=0;" parent="WIyWlLk6GJQsqaUBKTNV-1" vertex="1">
          <mxGeometry x="70" y="859.5" width="70" height="40" as="geometry" />
        </mxCell>
        <mxCell id="AzQNed1N8ElNNBdo4Fju-25" style="edgeStyle=orthogonalEdgeStyle;rounded=0;orthogonalLoop=1;jettySize=auto;html=1;exitX=0.5;exitY=1;exitDx=0;exitDy=0;entryX=0.5;entryY=0;entryDx=0;entryDy=0;" parent="WIyWlLk6GJQsqaUBKTNV-1" source="AzQNed1N8ElNNBdo4Fju-14" target="AzQNed1N8ElNNBdo4Fju-16" edge="1">
          <mxGeometry relative="1" as="geometry" />
        </mxCell>
        <mxCell id="AzQNed1N8ElNNBdo4Fju-26" style="edgeStyle=orthogonalEdgeStyle;rounded=0;orthogonalLoop=1;jettySize=auto;html=1;exitX=0;exitY=0.5;exitDx=0;exitDy=0;entryX=0.5;entryY=0;entryDx=0;entryDy=0;" parent="WIyWlLk6GJQsqaUBKTNV-1" source="AzQNed1N8ElNNBdo4Fju-14" target="AzQNed1N8ElNNBdo4Fju-15" edge="1">
          <mxGeometry relative="1" as="geometry" />
        </mxCell>
        <mxCell id="AzQNed1N8ElNNBdo4Fju-27" style="edgeStyle=orthogonalEdgeStyle;rounded=0;orthogonalLoop=1;jettySize=auto;html=1;exitX=1;exitY=0.5;exitDx=0;exitDy=0;entryX=0.5;entryY=0;entryDx=0;entryDy=0;" parent="WIyWlLk6GJQsqaUBKTNV-1" source="AzQNed1N8ElNNBdo4Fju-14" target="AzQNed1N8ElNNBdo4Fju-17" edge="1">
          <mxGeometry relative="1" as="geometry" />
        </mxCell>
        <mxCell id="AzQNed1N8ElNNBdo4Fju-14" value="投影类型&lt;br&gt;projMethod" style="rhombus;whiteSpace=wrap;html=1;shadow=0;fontFamily=Helvetica;fontSize=12;align=center;strokeWidth=1;spacing=6;spacingTop=-4;" parent="WIyWlLk6GJQsqaUBKTNV-1" vertex="1">
          <mxGeometry x="-604" y="1072" width="120" height="45" as="geometry" />
        </mxCell>
        <mxCell id="AzQNed1N8ElNNBdo4Fju-269" style="edgeStyle=orthogonalEdgeStyle;rounded=0;orthogonalLoop=1;jettySize=auto;html=1;exitX=0.5;exitY=1;exitDx=0;exitDy=0;entryX=0.5;entryY=0;entryDx=0;entryDy=0;" parent="WIyWlLk6GJQsqaUBKTNV-1" source="AzQNed1N8ElNNBdo4Fju-15" target="AzQNed1N8ElNNBdo4Fju-33" edge="1">
          <mxGeometry relative="1" as="geometry" />
        </mxCell>
        <mxCell id="AzQNed1N8ElNNBdo4Fju-15" value="normal&lt;br&gt;direction = +/-srf.Normal()" style="rounded=1;whiteSpace=wrap;html=1;fontSize=12;glass=0;strokeWidth=1;shadow=0;" parent="WIyWlLk6GJQsqaUBKTNV-1" vertex="1">
          <mxGeometry x="-784" y="1142" width="153" height="40" as="geometry" />
        </mxCell>
        <mxCell id="AzQNed1N8ElNNBdo4Fju-270" style="edgeStyle=orthogonalEdgeStyle;rounded=0;orthogonalLoop=1;jettySize=auto;html=1;exitX=0.5;exitY=1;exitDx=0;exitDy=0;entryX=0.5;entryY=0;entryDx=0;entryDy=0;" parent="WIyWlLk6GJQsqaUBKTNV-1" source="AzQNed1N8ElNNBdo4Fju-16" target="AzQNed1N8ElNNBdo4Fju-33" edge="1">
          <mxGeometry relative="1" as="geometry">
            <mxPoint x="-620" y="1230" as="targetPoint" />
          </mxGeometry>
        </mxCell>
        <mxCell id="AzQNed1N8ElNNBdo4Fju-16" value="vector&lt;br&gt;direction" style="rounded=1;whiteSpace=wrap;html=1;fontSize=12;glass=0;strokeWidth=1;shadow=0;" parent="WIyWlLk6GJQsqaUBKTNV-1" vertex="1">
          <mxGeometry x="-579" y="1142" width="70" height="40" as="geometry" />
        </mxCell>
        <mxCell id="AzQNed1N8ElNNBdo4Fju-29" style="edgeStyle=orthogonalEdgeStyle;rounded=0;orthogonalLoop=1;jettySize=auto;html=1;exitX=0.5;exitY=1;exitDx=0;exitDy=0;entryX=0.5;entryY=0;entryDx=0;entryDy=0;" parent="WIyWlLk6GJQsqaUBKTNV-1" source="AzQNed1N8ElNNBdo4Fju-17" target="AzQNed1N8ElNNBdo4Fju-28" edge="1">
          <mxGeometry relative="1" as="geometry" />
        </mxCell>
        <mxCell id="AzQNed1N8ElNNBdo4Fju-17" value="perspective" style="rounded=1;whiteSpace=wrap;html=1;fontSize=12;glass=0;strokeWidth=1;shadow=0;" parent="WIyWlLk6GJQsqaUBKTNV-1" vertex="1">
          <mxGeometry x="-461" y="1142" width="70" height="40" as="geometry" />
        </mxCell>
        <mxCell id="AzQNed1N8ElNNBdo4Fju-28" value="TODO" style="rounded=1;whiteSpace=wrap;html=1;fontSize=12;glass=0;strokeWidth=1;shadow=0;" parent="WIyWlLk6GJQsqaUBKTNV-1" vertex="1">
          <mxGeometry x="-461" y="1202" width="70" height="40" as="geometry" />
        </mxCell>
        <mxCell id="AzQNed1N8ElNNBdo4Fju-39" style="edgeStyle=orthogonalEdgeStyle;rounded=0;orthogonalLoop=1;jettySize=auto;html=1;exitX=0;exitY=0.5;exitDx=0;exitDy=0;exitPerimeter=0;entryX=0.5;entryY=0;entryDx=0;entryDy=0;" parent="WIyWlLk6GJQsqaUBKTNV-1" target="AzQNed1N8ElNNBdo4Fju-33" edge="1">
          <mxGeometry relative="1" as="geometry">
            <mxPoint x="-625.9999999999995" y="1232" as="sourcePoint" />
          </mxGeometry>
        </mxCell>
        <mxCell id="AzQNed1N8ElNNBdo4Fju-36" value="" style="edgeStyle=orthogonalEdgeStyle;rounded=0;orthogonalLoop=1;jettySize=auto;html=1;" parent="WIyWlLk6GJQsqaUBKTNV-1" source="AzQNed1N8ElNNBdo4Fju-33" target="AzQNed1N8ElNNBdo4Fju-35" edge="1">
          <mxGeometry relative="1" as="geometry" />
        </mxCell>
        <mxCell id="AzQNed1N8ElNNBdo4Fju-41" value="" style="edgeStyle=orthogonalEdgeStyle;rounded=0;orthogonalLoop=1;jettySize=auto;html=1;" parent="WIyWlLk6GJQsqaUBKTNV-1" source="AzQNed1N8ElNNBdo4Fju-33" target="AzQNed1N8ElNNBdo4Fju-40" edge="1">
          <mxGeometry relative="1" as="geometry" />
        </mxCell>
        <mxCell id="AzQNed1N8ElNNBdo4Fju-33" value="direction是否&lt;br&gt;和srf平行？" style="rhombus;whiteSpace=wrap;html=1;shadow=0;fontFamily=Helvetica;fontSize=12;align=center;strokeWidth=1;spacing=6;spacingTop=-4;" parent="WIyWlLk6GJQsqaUBKTNV-1" vertex="1">
          <mxGeometry x="-701" y="1233" width="150" height="55" as="geometry" />
        </mxCell>
        <mxCell id="AzQNed1N8ElNNBdo4Fju-35" value="&lt;font color=&quot;#ff0000&quot;&gt;ERROR&lt;/font&gt;" style="rounded=1;whiteSpace=wrap;html=1;fontSize=12;glass=0;strokeWidth=1;shadow=0;" parent="WIyWlLk6GJQsqaUBKTNV-1" vertex="1">
          <mxGeometry x="-809" y="1240.5" width="70" height="40" as="geometry" />
        </mxCell>
        <mxCell id="AzQNed1N8ElNNBdo4Fju-37" value="&lt;span style=&quot;font-size: 11px;&quot;&gt;是&lt;/span&gt;" style="rounded=0;whiteSpace=wrap;html=1;gradientColor=default;fillColor=none;strokeColor=none;fontSize=9;align=left;" parent="WIyWlLk6GJQsqaUBKTNV-1" vertex="1">
          <mxGeometry x="-726" y="1233" width="25" height="30" as="geometry" />
        </mxCell>
        <mxCell id="AzQNed1N8ElNNBdo4Fju-38" value="&lt;span style=&quot;font-size: 11px;&quot;&gt;否&lt;/span&gt;" style="rounded=0;whiteSpace=wrap;html=1;gradientColor=default;fillColor=none;strokeColor=none;fontSize=9;align=left;" parent="WIyWlLk6GJQsqaUBKTNV-1" vertex="1">
          <mxGeometry x="-611.5" y="1288" width="25" height="30" as="geometry" />
        </mxCell>
        <mxCell id="AzQNed1N8ElNNBdo4Fju-271" style="edgeStyle=orthogonalEdgeStyle;rounded=0;orthogonalLoop=1;jettySize=auto;html=1;exitX=0.5;exitY=1;exitDx=0;exitDy=0;entryX=0.5;entryY=0;entryDx=0;entryDy=0;" parent="WIyWlLk6GJQsqaUBKTNV-1" source="AzQNed1N8ElNNBdo4Fju-40" target="AzQNed1N8ElNNBdo4Fju-44" edge="1">
          <mxGeometry relative="1" as="geometry" />
        </mxCell>
        <mxCell id="AzQNed1N8ElNNBdo4Fju-272" style="edgeStyle=orthogonalEdgeStyle;rounded=0;orthogonalLoop=1;jettySize=auto;html=1;exitX=0.5;exitY=1;exitDx=0;exitDy=0;" parent="WIyWlLk6GJQsqaUBKTNV-1" source="AzQNed1N8ElNNBdo4Fju-40" target="AzQNed1N8ElNNBdo4Fju-113" edge="1">
          <mxGeometry relative="1" as="geometry" />
        </mxCell>
        <mxCell id="AzQNed1N8ElNNBdo4Fju-273" style="edgeStyle=orthogonalEdgeStyle;rounded=0;orthogonalLoop=1;jettySize=auto;html=1;exitX=0.5;exitY=1;exitDx=0;exitDy=0;entryX=0.5;entryY=0;entryDx=0;entryDy=0;" parent="WIyWlLk6GJQsqaUBKTNV-1" source="AzQNed1N8ElNNBdo4Fju-40" target="AzQNed1N8ElNNBdo4Fju-45" edge="1">
          <mxGeometry relative="1" as="geometry" />
        </mxCell>
        <mxCell id="AzQNed1N8ElNNBdo4Fju-274" style="edgeStyle=orthogonalEdgeStyle;rounded=0;orthogonalLoop=1;jettySize=auto;html=1;exitX=0.5;exitY=1;exitDx=0;exitDy=0;entryX=0.5;entryY=0;entryDx=0;entryDy=0;" parent="WIyWlLk6GJQsqaUBKTNV-1" source="AzQNed1N8ElNNBdo4Fju-40" target="AzQNed1N8ElNNBdo4Fju-46" edge="1">
          <mxGeometry relative="1" as="geometry" />
        </mxCell>
        <mxCell id="AzQNed1N8ElNNBdo4Fju-40" value="crv类型" style="rhombus;whiteSpace=wrap;html=1;shadow=0;fontFamily=Helvetica;fontSize=12;align=center;strokeWidth=1;spacing=6;spacingTop=-4;" parent="WIyWlLk6GJQsqaUBKTNV-1" vertex="1">
          <mxGeometry x="-671" y="1318" width="90" height="45" as="geometry" />
        </mxCell>
        <mxCell id="AzQNed1N8ElNNBdo4Fju-123" style="edgeStyle=orthogonalEdgeStyle;rounded=0;orthogonalLoop=1;jettySize=auto;html=1;exitX=0.5;exitY=1;exitDx=0;exitDy=0;entryX=0.5;entryY=0;entryDx=0;entryDy=0;" parent="WIyWlLk6GJQsqaUBKTNV-1" source="AzQNed1N8ElNNBdo4Fju-44" target="AzQNed1N8ElNNBdo4Fju-111" edge="1">
          <mxGeometry relative="1" as="geometry" />
        </mxCell>
        <mxCell id="AzQNed1N8ElNNBdo4Fju-44" value="Circle/Ellipse&lt;br&gt;Arc/EllipticalArc" style="rounded=1;whiteSpace=wrap;html=1;fontSize=12;glass=0;strokeWidth=1;shadow=0;" parent="WIyWlLk6GJQsqaUBKTNV-1" vertex="1">
          <mxGeometry x="-676" y="1412" width="100" height="40" as="geometry" />
        </mxCell>
        <mxCell id="AzQNed1N8ElNNBdo4Fju-170" style="edgeStyle=orthogonalEdgeStyle;rounded=0;orthogonalLoop=1;jettySize=auto;html=1;exitX=0.5;exitY=1;exitDx=0;exitDy=0;entryX=0.5;entryY=0;entryDx=0;entryDy=0;" parent="WIyWlLk6GJQsqaUBKTNV-1" source="AzQNed1N8ElNNBdo4Fju-45" target="AzQNed1N8ElNNBdo4Fju-168" edge="1">
          <mxGeometry relative="1" as="geometry" />
        </mxCell>
        <mxCell id="AzQNed1N8ElNNBdo4Fju-45" value="BSCurve" style="rounded=1;whiteSpace=wrap;html=1;fontSize=12;glass=0;strokeWidth=1;shadow=0;" parent="WIyWlLk6GJQsqaUBKTNV-1" vertex="1">
          <mxGeometry x="-313.75" y="1413" width="70" height="40" as="geometry" />
        </mxCell>
        <mxCell id="AzQNed1N8ElNNBdo4Fju-48" value="" style="edgeStyle=orthogonalEdgeStyle;rounded=0;orthogonalLoop=1;jettySize=auto;html=1;" parent="WIyWlLk6GJQsqaUBKTNV-1" source="AzQNed1N8ElNNBdo4Fju-46" target="AzQNed1N8ElNNBdo4Fju-47" edge="1">
          <mxGeometry relative="1" as="geometry" />
        </mxCell>
        <mxCell id="AzQNed1N8ElNNBdo4Fju-46" value="IntCurve" style="rounded=1;whiteSpace=wrap;html=1;fontSize=12;glass=0;strokeWidth=1;shadow=0;" parent="WIyWlLk6GJQsqaUBKTNV-1" vertex="1">
          <mxGeometry x="-155.5" y="1413" width="70" height="40" as="geometry" />
        </mxCell>
        <mxCell id="AzQNed1N8ElNNBdo4Fju-47" value="&lt;font color=&quot;#ff0000&quot;&gt;TODO&lt;/font&gt;" style="rounded=1;whiteSpace=wrap;html=1;fontSize=12;glass=0;strokeWidth=1;shadow=0;" parent="WIyWlLk6GJQsqaUBKTNV-1" vertex="1">
          <mxGeometry x="-155.5" y="1473" width="70" height="40" as="geometry" />
        </mxCell>
        <mxCell id="AzQNed1N8ElNNBdo4Fju-86" value="" style="edgeStyle=orthogonalEdgeStyle;rounded=0;orthogonalLoop=1;jettySize=auto;html=1;" parent="WIyWlLk6GJQsqaUBKTNV-1" source="AzQNed1N8ElNNBdo4Fju-50" target="AzQNed1N8ElNNBdo4Fju-83" edge="1">
          <mxGeometry relative="1" as="geometry" />
        </mxCell>
        <mxCell id="AzQNed1N8ElNNBdo4Fju-50" value="LineSeg" style="rounded=1;whiteSpace=wrap;html=1;fontSize=12;glass=0;strokeWidth=1;shadow=0;" parent="WIyWlLk6GJQsqaUBKTNV-1" vertex="1">
          <mxGeometry x="-1083" y="1851" width="71" height="40" as="geometry" />
        </mxCell>
        <mxCell id="AzQNed1N8ElNNBdo4Fju-53" value="" style="edgeStyle=orthogonalEdgeStyle;rounded=0;orthogonalLoop=1;jettySize=auto;html=1;" parent="WIyWlLk6GJQsqaUBKTNV-1" source="AzQNed1N8ElNNBdo4Fju-51" target="AzQNed1N8ElNNBdo4Fju-52" edge="1">
          <mxGeometry relative="1" as="geometry" />
        </mxCell>
        <mxCell id="AzQNed1N8ElNNBdo4Fju-63" value="" style="edgeStyle=orthogonalEdgeStyle;rounded=0;orthogonalLoop=1;jettySize=auto;html=1;" parent="WIyWlLk6GJQsqaUBKTNV-1" source="AzQNed1N8ElNNBdo4Fju-51" target="AzQNed1N8ElNNBdo4Fju-61" edge="1">
          <mxGeometry relative="1" as="geometry" />
        </mxCell>
        <mxCell id="AzQNed1N8ElNNBdo4Fju-51" value="direction是否&lt;br&gt;与crv.Dir()共线？" style="rhombus;whiteSpace=wrap;html=1;shadow=0;fontFamily=Helvetica;fontSize=12;align=center;strokeWidth=1;spacing=6;spacingTop=-4;" parent="WIyWlLk6GJQsqaUBKTNV-1" vertex="1">
          <mxGeometry x="-1207" y="1598" width="150" height="55" as="geometry" />
        </mxCell>
        <mxCell id="AzQNed1N8ElNNBdo4Fju-56" value="" style="edgeStyle=orthogonalEdgeStyle;rounded=0;orthogonalLoop=1;jettySize=auto;html=1;" parent="WIyWlLk6GJQsqaUBKTNV-1" source="AzQNed1N8ElNNBdo4Fju-52" target="AzQNed1N8ElNNBdo4Fju-55" edge="1">
          <mxGeometry relative="1" as="geometry" />
        </mxCell>
        <mxCell id="AzQNed1N8ElNNBdo4Fju-121" style="edgeStyle=orthogonalEdgeStyle;rounded=0;orthogonalLoop=1;jettySize=auto;html=1;exitX=0.5;exitY=1;exitDx=0;exitDy=0;entryX=0.5;entryY=0;entryDx=0;entryDy=0;" parent="WIyWlLk6GJQsqaUBKTNV-1" source="AzQNed1N8ElNNBdo4Fju-52" target="AzQNed1N8ElNNBdo4Fju-62" edge="1">
          <mxGeometry relative="1" as="geometry" />
        </mxCell>
        <mxCell id="AzQNed1N8ElNNBdo4Fju-52" value="direction是否&lt;br&gt;与crv.Dir()同向？" style="rhombus;whiteSpace=wrap;html=1;shadow=0;fontFamily=Helvetica;fontSize=12;align=center;strokeWidth=1;spacing=6;spacingTop=-4;" parent="WIyWlLk6GJQsqaUBKTNV-1" vertex="1">
          <mxGeometry x="-1398" y="1598" width="150" height="55" as="geometry" />
        </mxCell>
        <mxCell id="AzQNed1N8ElNNBdo4Fju-54" value="&lt;span style=&quot;font-size: 11px;&quot;&gt;是&lt;/span&gt;" style="rounded=0;whiteSpace=wrap;html=1;gradientColor=default;fillColor=none;strokeColor=none;fontSize=9;align=left;" parent="WIyWlLk6GJQsqaUBKTNV-1" vertex="1">
          <mxGeometry x="-1227" y="1598" width="25" height="30" as="geometry" />
        </mxCell>
        <mxCell id="AzQNed1N8ElNNBdo4Fju-55" value="&lt;font color=&quot;#ff0000&quot;&gt;ERROR&lt;/font&gt;" style="rounded=1;whiteSpace=wrap;html=1;fontSize=12;glass=0;strokeWidth=1;shadow=0;" parent="WIyWlLk6GJQsqaUBKTNV-1" vertex="1">
          <mxGeometry x="-1498" y="1605.5" width="70" height="40" as="geometry" />
        </mxCell>
        <mxCell id="AzQNed1N8ElNNBdo4Fju-57" value="&lt;span style=&quot;font-size: 11px;&quot;&gt;否&lt;/span&gt;" style="rounded=0;whiteSpace=wrap;html=1;gradientColor=default;fillColor=none;strokeColor=none;fontSize=9;align=left;" parent="WIyWlLk6GJQsqaUBKTNV-1" vertex="1">
          <mxGeometry x="-1418" y="1588" width="25" height="30" as="geometry" />
        </mxCell>
        <mxCell id="AzQNed1N8ElNNBdo4Fju-60" value="&lt;span style=&quot;font-size: 11px;&quot;&gt;是&lt;/span&gt;" style="rounded=0;whiteSpace=wrap;html=1;gradientColor=default;fillColor=none;strokeColor=none;fontSize=9;align=left;" parent="WIyWlLk6GJQsqaUBKTNV-1" vertex="1">
          <mxGeometry x="-1317" y="1675.5" width="25" height="30" as="geometry" />
        </mxCell>
        <mxCell id="AzQNed1N8ElNNBdo4Fju-122" style="edgeStyle=orthogonalEdgeStyle;rounded=0;orthogonalLoop=1;jettySize=auto;html=1;exitX=0.5;exitY=1;exitDx=0;exitDy=0;entryX=0.5;entryY=0;entryDx=0;entryDy=0;" parent="WIyWlLk6GJQsqaUBKTNV-1" source="AzQNed1N8ElNNBdo4Fju-61" target="AzQNed1N8ElNNBdo4Fju-65" edge="1">
          <mxGeometry relative="1" as="geometry" />
        </mxCell>
        <mxCell id="AzQNed1N8ElNNBdo4Fju-61" value="dirProj = crv.Dir()在plane上的投影;" style="rounded=1;whiteSpace=wrap;html=1;fontSize=12;glass=0;strokeWidth=1;shadow=0;" parent="WIyWlLk6GJQsqaUBKTNV-1" vertex="1">
          <mxGeometry x="-1227" y="1678" width="190" height="40" as="geometry" />
        </mxCell>
        <mxCell id="AzQNed1N8ElNNBdo4Fju-62" value="&lt;b&gt;result = { ptProj }&lt;/b&gt;" style="rounded=1;whiteSpace=wrap;html=1;fontSize=12;glass=0;strokeWidth=1;shadow=0;" parent="WIyWlLk6GJQsqaUBKTNV-1" vertex="1">
          <mxGeometry x="-1375" y="1752" width="104" height="40" as="geometry" />
        </mxCell>
        <mxCell id="AzQNed1N8ElNNBdo4Fju-64" value="&lt;span style=&quot;font-size: 11px;&quot;&gt;否&lt;/span&gt;" style="rounded=0;whiteSpace=wrap;html=1;gradientColor=default;fillColor=none;strokeColor=none;fontSize=9;align=left;" parent="WIyWlLk6GJQsqaUBKTNV-1" vertex="1">
          <mxGeometry x="-1117" y="1645.5" width="25" height="30" as="geometry" />
        </mxCell>
        <mxCell id="AzQNed1N8ElNNBdo4Fju-67" value="" style="edgeStyle=orthogonalEdgeStyle;rounded=0;orthogonalLoop=1;jettySize=auto;html=1;" parent="WIyWlLk6GJQsqaUBKTNV-1" source="AzQNed1N8ElNNBdo4Fju-65" target="AzQNed1N8ElNNBdo4Fju-62" edge="1">
          <mxGeometry relative="1" as="geometry" />
        </mxCell>
        <mxCell id="AzQNed1N8ElNNBdo4Fju-275" style="edgeStyle=orthogonalEdgeStyle;rounded=0;orthogonalLoop=1;jettySize=auto;html=1;exitX=0.5;exitY=1;exitDx=0;exitDy=0;entryX=0.5;entryY=0;entryDx=0;entryDy=0;" parent="WIyWlLk6GJQsqaUBKTNV-1" source="AzQNed1N8ElNNBdo4Fju-65" target="AzQNed1N8ElNNBdo4Fju-76" edge="1">
          <mxGeometry relative="1" as="geometry" />
        </mxCell>
        <mxCell id="AzQNed1N8ElNNBdo4Fju-276" style="edgeStyle=orthogonalEdgeStyle;rounded=0;orthogonalLoop=1;jettySize=auto;html=1;exitX=0.5;exitY=1;exitDx=0;exitDy=0;entryX=0.5;entryY=0;entryDx=0;entryDy=0;" parent="WIyWlLk6GJQsqaUBKTNV-1" source="AzQNed1N8ElNNBdo4Fju-65" target="AzQNed1N8ElNNBdo4Fju-50" edge="1">
          <mxGeometry relative="1" as="geometry" />
        </mxCell>
        <mxCell id="AzQNed1N8ElNNBdo4Fju-65" value="dirProj.Length() == 0 ?" style="rhombus;whiteSpace=wrap;html=1;shadow=0;fontFamily=Helvetica;fontSize=12;align=center;strokeWidth=1;spacing=6;spacingTop=-4;" parent="WIyWlLk6GJQsqaUBKTNV-1" vertex="1">
          <mxGeometry x="-1207" y="1744.5" width="150" height="55" as="geometry" />
        </mxCell>
        <mxCell id="AzQNed1N8ElNNBdo4Fju-68" value="&lt;span style=&quot;font-size: 11px;&quot;&gt;是&lt;/span&gt;" style="rounded=0;whiteSpace=wrap;html=1;gradientColor=default;fillColor=none;strokeColor=none;fontSize=9;align=left;" parent="WIyWlLk6GJQsqaUBKTNV-1" vertex="1">
          <mxGeometry x="-1247" y="1744.5" width="25" height="30" as="geometry" />
        </mxCell>
        <mxCell id="AzQNed1N8ElNNBdo4Fju-70" value="&lt;b&gt;result = { Line(ptProj, dirProj) }&lt;/b&gt;" style="rounded=1;whiteSpace=wrap;html=1;fontSize=12;glass=0;strokeWidth=1;shadow=0;" parent="WIyWlLk6GJQsqaUBKTNV-1" vertex="1">
          <mxGeometry x="-1284.5" y="1972" width="135" height="40" as="geometry" />
        </mxCell>
        <mxCell id="AzQNed1N8ElNNBdo4Fju-72" value="&lt;span style=&quot;font-size: 11px;&quot;&gt;否&lt;/span&gt;" style="rounded=0;whiteSpace=wrap;html=1;gradientColor=default;fillColor=none;strokeColor=none;fontSize=9;align=left;" parent="WIyWlLk6GJQsqaUBKTNV-1" vertex="1">
          <mxGeometry x="-1117" y="1792" width="25" height="30" as="geometry" />
        </mxCell>
        <mxCell id="AzQNed1N8ElNNBdo4Fju-80" value="" style="edgeStyle=orthogonalEdgeStyle;rounded=0;orthogonalLoop=1;jettySize=auto;html=1;" parent="WIyWlLk6GJQsqaUBKTNV-1" source="AzQNed1N8ElNNBdo4Fju-76" target="AzQNed1N8ElNNBdo4Fju-70" edge="1">
          <mxGeometry relative="1" as="geometry" />
        </mxCell>
        <mxCell id="AzQNed1N8ElNNBdo4Fju-76" value="Line" style="rounded=1;whiteSpace=wrap;html=1;fontSize=12;glass=0;strokeWidth=1;shadow=0;" parent="WIyWlLk6GJQsqaUBKTNV-1" vertex="1">
          <mxGeometry x="-1252" y="1851" width="70" height="40" as="geometry" />
        </mxCell>
        <mxCell id="AzQNed1N8ElNNBdo4Fju-89" value="" style="edgeStyle=orthogonalEdgeStyle;rounded=0;orthogonalLoop=1;jettySize=auto;html=1;" parent="WIyWlLk6GJQsqaUBKTNV-1" source="AzQNed1N8ElNNBdo4Fju-83" target="AzQNed1N8ElNNBdo4Fju-87" edge="1">
          <mxGeometry relative="1" as="geometry" />
        </mxCell>
        <mxCell id="AzQNed1N8ElNNBdo4Fju-83" value="将lsg的首末端点投影到plane上，获得ptS、ptE" style="rounded=1;whiteSpace=wrap;html=1;fontSize=12;glass=0;strokeWidth=1;shadow=0;" parent="WIyWlLk6GJQsqaUBKTNV-1" vertex="1">
          <mxGeometry x="-1124" y="1912" width="153" height="40" as="geometry" />
        </mxCell>
        <mxCell id="AzQNed1N8ElNNBdo4Fju-87" value="&lt;b&gt;result = { LineSeg(ptProjS, ptProjE) }&lt;/b&gt;" style="rounded=1;whiteSpace=wrap;html=1;fontSize=12;glass=0;strokeWidth=1;shadow=0;" parent="WIyWlLk6GJQsqaUBKTNV-1" vertex="1">
          <mxGeometry x="-1137.5" y="1972" width="180" height="40" as="geometry" />
        </mxCell>
        <mxCell id="AzQNed1N8ElNNBdo4Fju-131" style="edgeStyle=orthogonalEdgeStyle;rounded=0;orthogonalLoop=1;jettySize=auto;html=1;exitX=0;exitY=0.5;exitDx=0;exitDy=0;entryX=0.5;entryY=0;entryDx=0;entryDy=0;" parent="WIyWlLk6GJQsqaUBKTNV-1" source="AzQNed1N8ElNNBdo4Fju-90" target="AzQNed1N8ElNNBdo4Fju-130" edge="1">
          <mxGeometry relative="1" as="geometry" />
        </mxCell>
        <mxCell id="AzQNed1N8ElNNBdo4Fju-148" style="edgeStyle=orthogonalEdgeStyle;rounded=0;orthogonalLoop=1;jettySize=auto;html=1;exitX=1;exitY=0.5;exitDx=0;exitDy=0;entryX=0.5;entryY=0;entryDx=0;entryDy=0;" parent="WIyWlLk6GJQsqaUBKTNV-1" source="AzQNed1N8ElNNBdo4Fju-90" target="AzQNed1N8ElNNBdo4Fju-146" edge="1">
          <mxGeometry relative="1" as="geometry" />
        </mxCell>
        <mxCell id="AzQNed1N8ElNNBdo4Fju-90" value="direction是否&lt;br&gt;与crv所在平面平行？" style="rhombus;whiteSpace=wrap;html=1;shadow=0;fontFamily=Helvetica;fontSize=12;align=center;strokeWidth=1;spacing=6;spacingTop=-4;" parent="WIyWlLk6GJQsqaUBKTNV-1" vertex="1">
          <mxGeometry x="-701" y="1600" width="150" height="55" as="geometry" />
        </mxCell>
        <mxCell id="AzQNed1N8ElNNBdo4Fju-97" value="&lt;span style=&quot;font-size: 11px;&quot;&gt;否&lt;/span&gt;" style="rounded=0;whiteSpace=wrap;html=1;gradientColor=default;fillColor=none;strokeColor=none;fontSize=9;align=left;" parent="WIyWlLk6GJQsqaUBKTNV-1" vertex="1">
          <mxGeometry x="-1212" y="1522" width="24" height="30" as="geometry" />
        </mxCell>
        <mxCell id="AzQNed1N8ElNNBdo4Fju-126" style="edgeStyle=orthogonalEdgeStyle;rounded=0;orthogonalLoop=1;jettySize=auto;html=1;exitX=0.5;exitY=1;exitDx=0;exitDy=0;entryX=0.5;entryY=0;entryDx=0;entryDy=0;" parent="WIyWlLk6GJQsqaUBKTNV-1" source="AzQNed1N8ElNNBdo4Fju-111" target="AzQNed1N8ElNNBdo4Fju-124" edge="1">
          <mxGeometry relative="1" as="geometry" />
        </mxCell>
        <mxCell id="AzQNed1N8ElNNBdo4Fju-111" value="ptProj = crv.Origin()在plane上的投影" style="rounded=1;whiteSpace=wrap;html=1;fontSize=12;glass=0;strokeWidth=1;shadow=0;" parent="WIyWlLk6GJQsqaUBKTNV-1" vertex="1">
          <mxGeometry x="-681" y="1474" width="110" height="40" as="geometry" />
        </mxCell>
        <mxCell id="AzQNed1N8ElNNBdo4Fju-115" value="" style="edgeStyle=orthogonalEdgeStyle;rounded=0;orthogonalLoop=1;jettySize=auto;html=1;" parent="WIyWlLk6GJQsqaUBKTNV-1" source="AzQNed1N8ElNNBdo4Fju-112" target="AzQNed1N8ElNNBdo4Fju-114" edge="1">
          <mxGeometry relative="1" as="geometry" />
        </mxCell>
        <mxCell id="AzQNed1N8ElNNBdo4Fju-112" value="ptProj = crv.Origin()在plane上的投影" style="rounded=1;whiteSpace=wrap;html=1;fontSize=12;glass=0;strokeWidth=1;shadow=0;align=center;" parent="WIyWlLk6GJQsqaUBKTNV-1" vertex="1">
          <mxGeometry x="-1186.45" y="1472" width="109" height="40" as="geometry" />
        </mxCell>
        <mxCell id="AzQNed1N8ElNNBdo4Fju-117" style="edgeStyle=orthogonalEdgeStyle;rounded=0;orthogonalLoop=1;jettySize=auto;html=1;exitX=0.5;exitY=1;exitDx=0;exitDy=0;entryX=0.5;entryY=0;entryDx=0;entryDy=0;" parent="WIyWlLk6GJQsqaUBKTNV-1" source="AzQNed1N8ElNNBdo4Fju-113" target="AzQNed1N8ElNNBdo4Fju-112" edge="1">
          <mxGeometry relative="1" as="geometry" />
        </mxCell>
        <mxCell id="AzQNed1N8ElNNBdo4Fju-113" value="Line/LineSeg" style="rounded=1;whiteSpace=wrap;html=1;fontSize=12;glass=0;strokeWidth=1;shadow=0;" parent="WIyWlLk6GJQsqaUBKTNV-1" vertex="1">
          <mxGeometry x="-1173.95" y="1413" width="84" height="40" as="geometry" />
        </mxCell>
        <mxCell id="AzQNed1N8ElNNBdo4Fju-116" style="edgeStyle=orthogonalEdgeStyle;rounded=0;orthogonalLoop=1;jettySize=auto;html=1;exitX=0;exitY=0.5;exitDx=0;exitDy=0;entryX=0.5;entryY=0;entryDx=0;entryDy=0;" parent="WIyWlLk6GJQsqaUBKTNV-1" source="AzQNed1N8ElNNBdo4Fju-114" target="AzQNed1N8ElNNBdo4Fju-55" edge="1">
          <mxGeometry relative="1" as="geometry" />
        </mxCell>
        <mxCell id="AzQNed1N8ElNNBdo4Fju-119" style="edgeStyle=orthogonalEdgeStyle;rounded=0;orthogonalLoop=1;jettySize=auto;html=1;exitX=0.5;exitY=1;exitDx=0;exitDy=0;entryX=0.5;entryY=0;entryDx=0;entryDy=0;" parent="WIyWlLk6GJQsqaUBKTNV-1" source="AzQNed1N8ElNNBdo4Fju-114" target="AzQNed1N8ElNNBdo4Fju-51" edge="1">
          <mxGeometry relative="1" as="geometry" />
        </mxCell>
        <mxCell id="AzQNed1N8ElNNBdo4Fju-114" value="ptProj是否可解？" style="rhombus;whiteSpace=wrap;html=1;shadow=0;fontFamily=Helvetica;fontSize=12;align=center;strokeWidth=1;spacing=6;spacingTop=-4;" parent="WIyWlLk6GJQsqaUBKTNV-1" vertex="1">
          <mxGeometry x="-1187" y="1532" width="110" height="45" as="geometry" />
        </mxCell>
        <mxCell id="AzQNed1N8ElNNBdo4Fju-120" value="&lt;span style=&quot;font-size: 11px;&quot;&gt;是&lt;/span&gt;" style="rounded=0;whiteSpace=wrap;html=1;gradientColor=default;fillColor=none;strokeColor=none;fontSize=9;align=left;" parent="WIyWlLk6GJQsqaUBKTNV-1" vertex="1">
          <mxGeometry x="-1124" y="1568" width="25" height="30" as="geometry" />
        </mxCell>
        <mxCell id="AzQNed1N8ElNNBdo4Fju-133" style="edgeStyle=orthogonalEdgeStyle;rounded=0;orthogonalLoop=1;jettySize=auto;html=1;exitX=0;exitY=0.5;exitDx=0;exitDy=0;entryX=1;entryY=0.5;entryDx=0;entryDy=0;" parent="WIyWlLk6GJQsqaUBKTNV-1" source="AzQNed1N8ElNNBdo4Fju-124" target="AzQNed1N8ElNNBdo4Fju-127" edge="1">
          <mxGeometry relative="1" as="geometry" />
        </mxCell>
        <mxCell id="AzQNed1N8ElNNBdo4Fju-144" value="" style="edgeStyle=orthogonalEdgeStyle;rounded=0;orthogonalLoop=1;jettySize=auto;html=1;" parent="WIyWlLk6GJQsqaUBKTNV-1" source="AzQNed1N8ElNNBdo4Fju-124" target="AzQNed1N8ElNNBdo4Fju-90" edge="1">
          <mxGeometry relative="1" as="geometry" />
        </mxCell>
        <mxCell id="AzQNed1N8ElNNBdo4Fju-124" value="ptProj是否可解？" style="rhombus;whiteSpace=wrap;html=1;shadow=0;fontFamily=Helvetica;fontSize=12;align=center;strokeWidth=1;spacing=6;spacingTop=-4;" parent="WIyWlLk6GJQsqaUBKTNV-1" vertex="1">
          <mxGeometry x="-686" y="1534" width="120" height="45" as="geometry" />
        </mxCell>
        <mxCell id="AzQNed1N8ElNNBdo4Fju-127" value="&lt;font color=&quot;#ff0000&quot;&gt;ERROR&lt;/font&gt;" style="rounded=1;whiteSpace=wrap;html=1;fontSize=12;glass=0;strokeWidth=1;shadow=0;" parent="WIyWlLk6GJQsqaUBKTNV-1" vertex="1">
          <mxGeometry x="-913" y="1537" width="70" height="40" as="geometry" />
        </mxCell>
        <mxCell id="AzQNed1N8ElNNBdo4Fju-129" value="&lt;span style=&quot;font-size: 11px;&quot;&gt;否&lt;/span&gt;" style="rounded=0;whiteSpace=wrap;html=1;gradientColor=default;fillColor=none;strokeColor=none;fontSize=9;align=left;" parent="WIyWlLk6GJQsqaUBKTNV-1" vertex="1">
          <mxGeometry x="-721.5" y="1524" width="24" height="30" as="geometry" />
        </mxCell>
        <mxCell id="AzQNed1N8ElNNBdo4Fju-142" style="edgeStyle=orthogonalEdgeStyle;rounded=0;orthogonalLoop=1;jettySize=auto;html=1;exitX=0;exitY=0.5;exitDx=0;exitDy=0;entryX=0.5;entryY=0;entryDx=0;entryDy=0;" parent="WIyWlLk6GJQsqaUBKTNV-1" source="AzQNed1N8ElNNBdo4Fju-130" target="AzQNed1N8ElNNBdo4Fju-134" edge="1">
          <mxGeometry relative="1" as="geometry">
            <Array as="points">
              <mxPoint x="-850" y="1700" />
            </Array>
          </mxGeometry>
        </mxCell>
        <mxCell id="AzQNed1N8ElNNBdo4Fju-143" style="edgeStyle=orthogonalEdgeStyle;rounded=0;orthogonalLoop=1;jettySize=auto;html=1;exitX=1;exitY=0.5;exitDx=0;exitDy=0;entryX=0.5;entryY=0;entryDx=0;entryDy=0;" parent="WIyWlLk6GJQsqaUBKTNV-1" source="AzQNed1N8ElNNBdo4Fju-130" target="AzQNed1N8ElNNBdo4Fju-139" edge="1">
          <mxGeometry relative="1" as="geometry" />
        </mxCell>
        <mxCell id="AzQNed1N8ElNNBdo4Fju-130" value="计算crv上切向量与direction平行的两点pt1、pt2" style="rounded=1;whiteSpace=wrap;html=1;fontSize=12;glass=0;strokeWidth=1;shadow=0;" parent="WIyWlLk6GJQsqaUBKTNV-1" vertex="1">
          <mxGeometry x="-833.5" y="1671" width="119" height="58" as="geometry" />
        </mxCell>
        <mxCell id="AzQNed1N8ElNNBdo4Fju-132" value="&lt;span style=&quot;font-size: 11px;&quot;&gt;是&lt;/span&gt;" style="rounded=0;whiteSpace=wrap;html=1;gradientColor=default;fillColor=none;strokeColor=none;fontSize=9;align=left;" parent="WIyWlLk6GJQsqaUBKTNV-1" vertex="1">
          <mxGeometry x="-739" y="1600" width="25" height="30" as="geometry" />
        </mxCell>
        <mxCell id="AzQNed1N8ElNNBdo4Fju-136" value="" style="edgeStyle=orthogonalEdgeStyle;rounded=0;orthogonalLoop=1;jettySize=auto;html=1;" parent="WIyWlLk6GJQsqaUBKTNV-1" source="AzQNed1N8ElNNBdo4Fju-134" target="AzQNed1N8ElNNBdo4Fju-135" edge="1">
          <mxGeometry relative="1" as="geometry" />
        </mxCell>
        <mxCell id="AzQNed1N8ElNNBdo4Fju-134" value="Circle/Ellipse" style="rounded=1;whiteSpace=wrap;html=1;fontSize=12;glass=0;strokeWidth=1;shadow=0;" parent="WIyWlLk6GJQsqaUBKTNV-1" vertex="1">
          <mxGeometry x="-890" y="1761.5" width="80" height="40" as="geometry" />
        </mxCell>
        <mxCell id="AzQNed1N8ElNNBdo4Fju-138" value="" style="edgeStyle=orthogonalEdgeStyle;rounded=0;orthogonalLoop=1;jettySize=auto;html=1;" parent="WIyWlLk6GJQsqaUBKTNV-1" source="AzQNed1N8ElNNBdo4Fju-135" target="AzQNed1N8ElNNBdo4Fju-137" edge="1">
          <mxGeometry relative="1" as="geometry" />
        </mxCell>
        <mxCell id="AzQNed1N8ElNNBdo4Fju-135" value="将pt1、pt2投影到plane上，得到ptProjS、ptProjE" style="rounded=1;whiteSpace=wrap;html=1;fontSize=12;glass=0;strokeWidth=1;shadow=0;" parent="WIyWlLk6GJQsqaUBKTNV-1" vertex="1">
          <mxGeometry x="-909.5" y="1824" width="119" height="58" as="geometry" />
        </mxCell>
        <mxCell id="AzQNed1N8ElNNBdo4Fju-137" value="&lt;b&gt;result = { LineSeg(ptProjS, ptProjE) }&lt;/b&gt;" style="rounded=1;whiteSpace=wrap;html=1;fontSize=12;glass=0;strokeWidth=1;shadow=0;" parent="WIyWlLk6GJQsqaUBKTNV-1" vertex="1">
          <mxGeometry x="-940" y="1914" width="180" height="40" as="geometry" />
        </mxCell>
        <mxCell id="AzQNed1N8ElNNBdo4Fju-141" value="" style="edgeStyle=orthogonalEdgeStyle;rounded=0;orthogonalLoop=1;jettySize=auto;html=1;" parent="WIyWlLk6GJQsqaUBKTNV-1" source="AzQNed1N8ElNNBdo4Fju-139" target="AzQNed1N8ElNNBdo4Fju-140" edge="1">
          <mxGeometry relative="1" as="geometry" />
        </mxCell>
        <mxCell id="AzQNed1N8ElNNBdo4Fju-139" value="Arc/EllipticalArc" style="rounded=1;whiteSpace=wrap;html=1;fontSize=12;glass=0;strokeWidth=1;shadow=0;" parent="WIyWlLk6GJQsqaUBKTNV-1" vertex="1">
          <mxGeometry x="-743" y="1761.5" width="100" height="40" as="geometry" />
        </mxCell>
        <mxCell id="AzQNed1N8ElNNBdo4Fju-140" value="&lt;font color=&quot;#cc0000&quot;&gt;TODO&lt;/font&gt;" style="rounded=1;whiteSpace=wrap;html=1;fontSize=12;glass=0;strokeWidth=1;shadow=0;" parent="WIyWlLk6GJQsqaUBKTNV-1" vertex="1">
          <mxGeometry x="-727.5" y="1824" width="70" height="40" as="geometry" />
        </mxCell>
        <mxCell id="AzQNed1N8ElNNBdo4Fju-145" value="&lt;span style=&quot;font-size: 11px;&quot;&gt;是&lt;/span&gt;" style="rounded=0;whiteSpace=wrap;html=1;gradientColor=default;fillColor=none;strokeColor=none;fontSize=9;align=left;" parent="WIyWlLk6GJQsqaUBKTNV-1" vertex="1">
          <mxGeometry x="-616" y="1575" width="25" height="30" as="geometry" />
        </mxCell>
        <mxCell id="AzQNed1N8ElNNBdo4Fju-151" value="" style="edgeStyle=orthogonalEdgeStyle;rounded=0;orthogonalLoop=1;jettySize=auto;html=1;" parent="WIyWlLk6GJQsqaUBKTNV-1" source="AzQNed1N8ElNNBdo4Fju-146" target="AzQNed1N8ElNNBdo4Fju-150" edge="1">
          <mxGeometry relative="1" as="geometry" />
        </mxCell>
        <mxCell id="AzQNed1N8ElNNBdo4Fju-146" value="计算投影后的椭圆的长/短轴，得到minorRadius和majorRadius" style="rounded=1;whiteSpace=wrap;html=1;fontSize=12;glass=0;strokeWidth=1;shadow=0;" parent="WIyWlLk6GJQsqaUBKTNV-1" vertex="1">
          <mxGeometry x="-536" y="1671" width="136.5" height="58" as="geometry" />
        </mxCell>
        <mxCell id="AzQNed1N8ElNNBdo4Fju-147" value="计算所参考的论文：https://www.geometrictools.com/Documentation/ParallelProjectionEllipse.pdf" style="rounded=0;whiteSpace=wrap;html=1;gradientColor=default;fillColor=none;strokeColor=none;fontSize=9;align=left;" parent="WIyWlLk6GJQsqaUBKTNV-1" vertex="1">
          <mxGeometry x="-456" y="1630" width="160" height="40" as="geometry" />
        </mxCell>
        <mxCell id="AzQNed1N8ElNNBdo4Fju-149" value="&lt;span style=&quot;font-size: 11px;&quot;&gt;否&lt;/span&gt;" style="rounded=0;whiteSpace=wrap;html=1;gradientColor=default;fillColor=none;strokeColor=none;fontSize=9;align=left;" parent="WIyWlLk6GJQsqaUBKTNV-1" vertex="1">
          <mxGeometry x="-551" y="1600" width="25" height="30" as="geometry" />
        </mxCell>
        <mxCell id="AzQNed1N8ElNNBdo4Fju-166" style="edgeStyle=orthogonalEdgeStyle;rounded=0;orthogonalLoop=1;jettySize=auto;html=1;exitX=0;exitY=0.5;exitDx=0;exitDy=0;entryX=0.5;entryY=0;entryDx=0;entryDy=0;" parent="WIyWlLk6GJQsqaUBKTNV-1" source="AzQNed1N8ElNNBdo4Fju-150" target="AzQNed1N8ElNNBdo4Fju-153" edge="1">
          <mxGeometry relative="1" as="geometry">
            <Array as="points">
              <mxPoint x="-548" y="1783" />
              <mxPoint x="-548" y="1846" />
            </Array>
          </mxGeometry>
        </mxCell>
        <mxCell id="AzQNed1N8ElNNBdo4Fju-167" style="edgeStyle=orthogonalEdgeStyle;rounded=0;orthogonalLoop=1;jettySize=auto;html=1;exitX=1;exitY=0.5;exitDx=0;exitDy=0;" parent="WIyWlLk6GJQsqaUBKTNV-1" source="AzQNed1N8ElNNBdo4Fju-150" target="AzQNed1N8ElNNBdo4Fju-162" edge="1">
          <mxGeometry relative="1" as="geometry" />
        </mxCell>
        <mxCell id="AzQNed1N8ElNNBdo4Fju-150" value="&lt;font color=&quot;#ff0000&quot;&gt;计算长/短轴的旋转矩阵，将长/短轴投影到plane上，获得axes&lt;/font&gt;" style="rounded=1;whiteSpace=wrap;html=1;fontSize=12;glass=0;strokeWidth=1;shadow=0;" parent="WIyWlLk6GJQsqaUBKTNV-1" vertex="1">
          <mxGeometry x="-536" y="1754" width="136.5" height="58" as="geometry" />
        </mxCell>
        <mxCell id="AzQNed1N8ElNNBdo4Fju-152" value="&lt;font color=&quot;#ff0000&quot;&gt;这一步还没想好要怎么做&lt;/font&gt;" style="rounded=0;whiteSpace=wrap;html=1;gradientColor=default;fillColor=none;strokeColor=none;fontSize=9;align=left;" parent="WIyWlLk6GJQsqaUBKTNV-1" vertex="1">
          <mxGeometry x="-456" y="1721.5" width="160" height="40" as="geometry" />
        </mxCell>
        <mxCell id="AzQNed1N8ElNNBdo4Fju-155" value="" style="edgeStyle=orthogonalEdgeStyle;rounded=0;orthogonalLoop=1;jettySize=auto;html=1;" parent="WIyWlLk6GJQsqaUBKTNV-1" source="AzQNed1N8ElNNBdo4Fju-153" target="AzQNed1N8ElNNBdo4Fju-154" edge="1">
          <mxGeometry relative="1" as="geometry" />
        </mxCell>
        <mxCell id="AzQNed1N8ElNNBdo4Fju-153" value="Circle/Ellipse" style="rounded=1;whiteSpace=wrap;html=1;fontSize=12;glass=0;strokeWidth=1;shadow=0;" parent="WIyWlLk6GJQsqaUBKTNV-1" vertex="1">
          <mxGeometry x="-588.5" y="1880" width="80" height="40" as="geometry" />
        </mxCell>
        <mxCell id="AzQNed1N8ElNNBdo4Fju-158" style="edgeStyle=orthogonalEdgeStyle;rounded=0;orthogonalLoop=1;jettySize=auto;html=1;exitX=0;exitY=0.5;exitDx=0;exitDy=0;entryX=0.5;entryY=0;entryDx=0;entryDy=0;" parent="WIyWlLk6GJQsqaUBKTNV-1" source="AzQNed1N8ElNNBdo4Fju-154" target="AzQNed1N8ElNNBdo4Fju-156" edge="1">
          <mxGeometry relative="1" as="geometry" />
        </mxCell>
        <mxCell id="AzQNed1N8ElNNBdo4Fju-159" style="edgeStyle=orthogonalEdgeStyle;rounded=0;orthogonalLoop=1;jettySize=auto;html=1;exitX=1;exitY=0.5;exitDx=0;exitDy=0;entryX=0.5;entryY=0;entryDx=0;entryDy=0;" parent="WIyWlLk6GJQsqaUBKTNV-1" source="AzQNed1N8ElNNBdo4Fju-154" target="AzQNed1N8ElNNBdo4Fju-157" edge="1">
          <mxGeometry relative="1" as="geometry" />
        </mxCell>
        <mxCell id="AzQNed1N8ElNNBdo4Fju-154" value="minorRadius == majorRadius ？" style="rhombus;whiteSpace=wrap;html=1;shadow=0;fontFamily=Helvetica;fontSize=12;align=center;strokeWidth=1;spacing=6;spacingTop=-4;" parent="WIyWlLk6GJQsqaUBKTNV-1" vertex="1">
          <mxGeometry x="-623.5" y="1940" width="150" height="55" as="geometry" />
        </mxCell>
        <mxCell id="AzQNed1N8ElNNBdo4Fju-156" value="&lt;b&gt;result = { Circle(axes, radius) }&lt;/b&gt;" style="rounded=1;whiteSpace=wrap;html=1;fontSize=12;glass=0;strokeWidth=1;shadow=0;" parent="WIyWlLk6GJQsqaUBKTNV-1" vertex="1">
          <mxGeometry x="-743.5" y="2009" width="180" height="40" as="geometry" />
        </mxCell>
        <mxCell id="AzQNed1N8ElNNBdo4Fju-157" value="&lt;b&gt;result = { Ellipse(axes, majorRadius, minorRadius) }&lt;/b&gt;" style="rounded=1;whiteSpace=wrap;html=1;fontSize=12;glass=0;strokeWidth=1;shadow=0;" parent="WIyWlLk6GJQsqaUBKTNV-1" vertex="1">
          <mxGeometry x="-531" y="2009" width="180" height="40" as="geometry" />
        </mxCell>
        <mxCell id="AzQNed1N8ElNNBdo4Fju-160" value="&lt;span style=&quot;font-size: 11px;&quot;&gt;是&lt;/span&gt;" style="rounded=0;whiteSpace=wrap;html=1;gradientColor=default;fillColor=none;strokeColor=none;fontSize=9;align=left;" parent="WIyWlLk6GJQsqaUBKTNV-1" vertex="1">
          <mxGeometry x="-643" y="1940" width="25" height="30" as="geometry" />
        </mxCell>
        <mxCell id="AzQNed1N8ElNNBdo4Fju-161" value="&lt;span style=&quot;font-size: 11px;&quot;&gt;否&lt;/span&gt;" style="rounded=0;whiteSpace=wrap;html=1;gradientColor=default;fillColor=none;strokeColor=none;fontSize=9;align=left;" parent="WIyWlLk6GJQsqaUBKTNV-1" vertex="1">
          <mxGeometry x="-465" y="1940" width="25" height="30" as="geometry" />
        </mxCell>
        <mxCell id="AzQNed1N8ElNNBdo4Fju-164" style="edgeStyle=orthogonalEdgeStyle;rounded=0;orthogonalLoop=1;jettySize=auto;html=1;exitX=0.5;exitY=1;exitDx=0;exitDy=0;entryX=1;entryY=0.5;entryDx=0;entryDy=0;" parent="WIyWlLk6GJQsqaUBKTNV-1" source="AzQNed1N8ElNNBdo4Fju-162" target="AzQNed1N8ElNNBdo4Fju-163" edge="1">
          <mxGeometry relative="1" as="geometry" />
        </mxCell>
        <mxCell id="AzQNed1N8ElNNBdo4Fju-162" value="Arc/EllipticalArc" style="rounded=1;whiteSpace=wrap;html=1;fontSize=12;glass=0;strokeWidth=1;shadow=0;" parent="WIyWlLk6GJQsqaUBKTNV-1" vertex="1">
          <mxGeometry x="-351" y="1880" width="100" height="40" as="geometry" />
        </mxCell>
        <mxCell id="AzQNed1N8ElNNBdo4Fju-163" value="" style="rounded=0;whiteSpace=wrap;html=1;fillColor=none;dashed=1;dashPattern=12 12;" parent="WIyWlLk6GJQsqaUBKTNV-1" vertex="1">
          <mxGeometry x="-753" y="1932" width="417" height="130" as="geometry" />
        </mxCell>
        <mxCell id="AzQNed1N8ElNNBdo4Fju-165" value="&lt;span style=&quot;font-size: 11px;&quot;&gt;加上startParam&lt;br&gt;和endParam&lt;/span&gt;" style="rounded=0;whiteSpace=wrap;html=1;gradientColor=default;fillColor=none;strokeColor=none;fontSize=9;align=left;" parent="WIyWlLk6GJQsqaUBKTNV-1" vertex="1">
          <mxGeometry x="-296" y="1940" width="90" height="40" as="geometry" />
        </mxCell>
        <mxCell id="AzQNed1N8ElNNBdo4Fju-171" style="edgeStyle=orthogonalEdgeStyle;rounded=0;orthogonalLoop=1;jettySize=auto;html=1;exitX=0.5;exitY=1;exitDx=0;exitDy=0;entryX=0.5;entryY=0;entryDx=0;entryDy=0;" parent="WIyWlLk6GJQsqaUBKTNV-1" source="AzQNed1N8ElNNBdo4Fju-168" target="AzQNed1N8ElNNBdo4Fju-169" edge="1">
          <mxGeometry relative="1" as="geometry" />
        </mxCell>
        <mxCell id="AzQNed1N8ElNNBdo4Fju-168" value="将控制顶点投影到plane上重新构造BSCurve" style="rounded=1;whiteSpace=wrap;html=1;fontSize=12;glass=0;strokeWidth=1;shadow=0;" parent="WIyWlLk6GJQsqaUBKTNV-1" vertex="1">
          <mxGeometry x="-347" y="1494" width="136.5" height="58" as="geometry" />
        </mxCell>
        <mxCell id="AzQNed1N8ElNNBdo4Fju-169" value="&lt;b&gt;result = { BSCurve}&lt;/b&gt;" style="rounded=1;whiteSpace=wrap;html=1;fontSize=12;glass=0;strokeWidth=1;shadow=0;" parent="WIyWlLk6GJQsqaUBKTNV-1" vertex="1">
          <mxGeometry x="-346.25" y="1568" width="139.25" height="40" as="geometry" />
        </mxCell>
        <mxCell id="AzQNed1N8ElNNBdo4Fju-176" value="" style="endArrow=none;html=1;rounded=0;exitX=0.5;exitY=0;exitDx=0;exitDy=0;entryX=0.502;entryY=0.157;entryDx=0;entryDy=0;entryPerimeter=0;" parent="WIyWlLk6GJQsqaUBKTNV-1" source="AzQNed1N8ElNNBdo4Fju-45" edge="1">
          <mxGeometry width="50" height="50" relative="1" as="geometry">
            <mxPoint x="-694" y="1672" as="sourcePoint" />
            <mxPoint x="-278.884" y="1388.1" as="targetPoint" />
          </mxGeometry>
        </mxCell>
        <mxCell id="AzQNed1N8ElNNBdo4Fju-177" value="TODO" style="rounded=1;whiteSpace=wrap;html=1;fontSize=12;glass=0;strokeWidth=1;shadow=0;" parent="WIyWlLk6GJQsqaUBKTNV-1" vertex="1">
          <mxGeometry x="-95" y="870" width="70" height="40" as="geometry" />
        </mxCell>
        <mxCell id="AzQNed1N8ElNNBdo4Fju-284" style="edgeStyle=orthogonalEdgeStyle;rounded=0;orthogonalLoop=1;jettySize=auto;html=1;exitX=0.5;exitY=0;exitDx=0;exitDy=0;entryX=0.5;entryY=0;entryDx=0;entryDy=0;" parent="WIyWlLk6GJQsqaUBKTNV-1" source="AzQNed1N8ElNNBdo4Fju-179" target="AzQNed1N8ElNNBdo4Fju-212" edge="1">
          <mxGeometry relative="1" as="geometry" />
        </mxCell>
        <mxCell id="AzQNed1N8ElNNBdo4Fju-285" style="edgeStyle=orthogonalEdgeStyle;rounded=0;orthogonalLoop=1;jettySize=auto;html=1;exitX=0.5;exitY=0;exitDx=0;exitDy=0;entryX=0.5;entryY=0;entryDx=0;entryDy=0;" parent="WIyWlLk6GJQsqaUBKTNV-1" source="AzQNed1N8ElNNBdo4Fju-179" target="AzQNed1N8ElNNBdo4Fju-239" edge="1">
          <mxGeometry relative="1" as="geometry" />
        </mxCell>
        <mxCell id="12BlZwvMtsUTy5BmQ8GU-22" style="edgeStyle=orthogonalEdgeStyle;rounded=0;orthogonalLoop=1;jettySize=auto;html=1;exitX=0.5;exitY=0;exitDx=0;exitDy=0;entryX=0.5;entryY=0;entryDx=0;entryDy=0;" edge="1" parent="WIyWlLk6GJQsqaUBKTNV-1" source="AzQNed1N8ElNNBdo4Fju-179" target="12BlZwvMtsUTy5BmQ8GU-21">
          <mxGeometry relative="1" as="geometry" />
        </mxCell>
        <mxCell id="AzQNed1N8ElNNBdo4Fju-179" value="Cylinder" style="rounded=1;whiteSpace=wrap;html=1;fontSize=12;glass=0;strokeWidth=1;shadow=0;" parent="WIyWlLk6GJQsqaUBKTNV-1" vertex="1">
          <mxGeometry x="248.75" y="752.5" width="70" height="40" as="geometry" />
        </mxCell>
        <mxCell id="AzQNed1N8ElNNBdo4Fju-306" style="edgeStyle=orthogonalEdgeStyle;rounded=0;orthogonalLoop=1;jettySize=auto;html=1;exitX=0.5;exitY=0;exitDx=0;exitDy=0;entryX=0.5;entryY=0;entryDx=0;entryDy=0;" parent="WIyWlLk6GJQsqaUBKTNV-1" source="AzQNed1N8ElNNBdo4Fju-180" target="AzQNed1N8ElNNBdo4Fju-287" edge="1">
          <mxGeometry relative="1" as="geometry" />
        </mxCell>
        <mxCell id="12BlZwvMtsUTy5BmQ8GU-59" style="edgeStyle=orthogonalEdgeStyle;rounded=0;orthogonalLoop=1;jettySize=auto;html=1;exitX=0.5;exitY=0;exitDx=0;exitDy=0;entryX=0.5;entryY=0;entryDx=0;entryDy=0;" edge="1" parent="WIyWlLk6GJQsqaUBKTNV-1" source="AzQNed1N8ElNNBdo4Fju-180" target="12BlZwvMtsUTy5BmQ8GU-41">
          <mxGeometry relative="1" as="geometry" />
        </mxCell>
        <mxCell id="12BlZwvMtsUTy5BmQ8GU-61" style="edgeStyle=orthogonalEdgeStyle;rounded=0;orthogonalLoop=1;jettySize=auto;html=1;exitX=0.5;exitY=0;exitDx=0;exitDy=0;entryX=0.5;entryY=0;entryDx=0;entryDy=0;" edge="1" parent="WIyWlLk6GJQsqaUBKTNV-1" source="AzQNed1N8ElNNBdo4Fju-180" target="12BlZwvMtsUTy5BmQ8GU-60">
          <mxGeometry relative="1" as="geometry" />
        </mxCell>
        <mxCell id="AzQNed1N8ElNNBdo4Fju-180" value="Cone" style="rounded=1;whiteSpace=wrap;html=1;fontSize=12;glass=0;strokeWidth=1;shadow=0;" parent="WIyWlLk6GJQsqaUBKTNV-1" vertex="1">
          <mxGeometry x="249.75" y="1225.5" width="70" height="40" as="geometry" />
        </mxCell>
        <mxCell id="AzQNed1N8ElNNBdo4Fju-187" value="" style="edgeStyle=orthogonalEdgeStyle;rounded=0;orthogonalLoop=1;jettySize=auto;html=1;" parent="WIyWlLk6GJQsqaUBKTNV-1" source="AzQNed1N8ElNNBdo4Fju-183" target="AzQNed1N8ElNNBdo4Fju-186" edge="1">
          <mxGeometry relative="1" as="geometry" />
        </mxCell>
        <mxCell id="AzQNed1N8ElNNBdo4Fju-195" value="" style="edgeStyle=orthogonalEdgeStyle;rounded=0;orthogonalLoop=1;jettySize=auto;html=1;" parent="WIyWlLk6GJQsqaUBKTNV-1" source="AzQNed1N8ElNNBdo4Fju-183" target="AzQNed1N8ElNNBdo4Fju-194" edge="1">
          <mxGeometry relative="1" as="geometry" />
        </mxCell>
        <mxCell id="AzQNed1N8ElNNBdo4Fju-183" value="crv所在的平面是否&lt;br&gt;与plane平行？" style="rhombus;whiteSpace=wrap;html=1;shadow=0;fontFamily=Helvetica;fontSize=12;align=center;strokeWidth=1;spacing=6;spacingTop=-4;" parent="WIyWlLk6GJQsqaUBKTNV-1" vertex="1">
          <mxGeometry x="-534" y="870" width="145.5" height="70" as="geometry" />
        </mxCell>
        <mxCell id="AzQNed1N8ElNNBdo4Fju-190" value="" style="edgeStyle=orthogonalEdgeStyle;rounded=0;orthogonalLoop=1;jettySize=auto;html=1;entryX=0.5;entryY=0;entryDx=0;entryDy=0;" parent="WIyWlLk6GJQsqaUBKTNV-1" source="AzQNed1N8ElNNBdo4Fju-186" target="AzQNed1N8ElNNBdo4Fju-14" edge="1">
          <mxGeometry relative="1" as="geometry">
            <mxPoint x="-540" y="1070" as="targetPoint" />
            <Array as="points">
              <mxPoint x="-643" y="1040" />
              <mxPoint x="-544" y="1040" />
            </Array>
          </mxGeometry>
        </mxCell>
        <mxCell id="AzQNed1N8ElNNBdo4Fju-193" value="" style="edgeStyle=orthogonalEdgeStyle;rounded=0;orthogonalLoop=1;jettySize=auto;html=1;" parent="WIyWlLk6GJQsqaUBKTNV-1" source="AzQNed1N8ElNNBdo4Fju-186" target="AzQNed1N8ElNNBdo4Fju-192" edge="1">
          <mxGeometry relative="1" as="geometry" />
        </mxCell>
        <mxCell id="AzQNed1N8ElNNBdo4Fju-186" value="crv所在的平面与&lt;br&gt;plane间的距离是否为0？" style="rhombus;whiteSpace=wrap;html=1;shadow=0;fontFamily=Helvetica;fontSize=12;align=center;strokeWidth=1;spacing=6;spacingTop=-4;" parent="WIyWlLk6GJQsqaUBKTNV-1" vertex="1">
          <mxGeometry x="-715.25" y="870" width="145.5" height="70" as="geometry" />
        </mxCell>
        <mxCell id="AzQNed1N8ElNNBdo4Fju-188" value="&lt;span style=&quot;font-size: 11px;&quot;&gt;是&lt;/span&gt;" style="rounded=0;whiteSpace=wrap;html=1;gradientColor=default;fillColor=none;strokeColor=none;fontSize=9;align=left;" parent="WIyWlLk6GJQsqaUBKTNV-1" vertex="1">
          <mxGeometry x="-557" y="880" width="25" height="30" as="geometry" />
        </mxCell>
        <mxCell id="AzQNed1N8ElNNBdo4Fju-191" value="&lt;span style=&quot;font-size: 11px;&quot;&gt;是&lt;/span&gt;" style="rounded=0;whiteSpace=wrap;html=1;gradientColor=default;fillColor=none;strokeColor=none;fontSize=9;align=left;" parent="WIyWlLk6GJQsqaUBKTNV-1" vertex="1">
          <mxGeometry x="-749.5" y="875" width="25" height="30" as="geometry" />
        </mxCell>
        <mxCell id="AzQNed1N8ElNNBdo4Fju-192" value="&lt;b&gt;返回原曲线&lt;br&gt;result = { crv}&lt;/b&gt;" style="rounded=1;whiteSpace=wrap;html=1;fontSize=12;glass=0;strokeWidth=1;shadow=0;" parent="WIyWlLk6GJQsqaUBKTNV-1" vertex="1">
          <mxGeometry x="-865.5" y="885" width="106.5" height="40" as="geometry" />
        </mxCell>
        <mxCell id="AzQNed1N8ElNNBdo4Fju-197" style="edgeStyle=orthogonalEdgeStyle;rounded=0;orthogonalLoop=1;jettySize=auto;html=1;exitX=0.5;exitY=1;exitDx=0;exitDy=0;entryX=0.5;entryY=0;entryDx=0;entryDy=0;" parent="WIyWlLk6GJQsqaUBKTNV-1" source="AzQNed1N8ElNNBdo4Fju-194" target="AzQNed1N8ElNNBdo4Fju-14" edge="1">
          <mxGeometry relative="1" as="geometry">
            <Array as="points">
              <mxPoint x="-462" y="1040" />
              <mxPoint x="-544" y="1040" />
            </Array>
          </mxGeometry>
        </mxCell>
        <mxCell id="AzQNed1N8ElNNBdo4Fju-200" value="" style="edgeStyle=orthogonalEdgeStyle;rounded=0;orthogonalLoop=1;jettySize=auto;html=1;" parent="WIyWlLk6GJQsqaUBKTNV-1" source="AzQNed1N8ElNNBdo4Fju-194" target="AzQNed1N8ElNNBdo4Fju-199" edge="1">
          <mxGeometry relative="1" as="geometry" />
        </mxCell>
        <mxCell id="AzQNed1N8ElNNBdo4Fju-194" value="crv与plane是否有交？" style="rhombus;whiteSpace=wrap;html=1;shadow=0;fontFamily=Helvetica;fontSize=12;align=center;strokeWidth=1;spacing=6;spacingTop=-4;" parent="WIyWlLk6GJQsqaUBKTNV-1" vertex="1">
          <mxGeometry x="-534.25" y="970" width="145.5" height="50" as="geometry" />
        </mxCell>
        <mxCell id="AzQNed1N8ElNNBdo4Fju-196" value="&lt;span style=&quot;font-size: 11px;&quot;&gt;否&lt;/span&gt;" style="rounded=0;whiteSpace=wrap;html=1;gradientColor=default;fillColor=none;strokeColor=none;fontSize=9;align=left;" parent="WIyWlLk6GJQsqaUBKTNV-1" vertex="1">
          <mxGeometry x="-452" y="940" width="25" height="30" as="geometry" />
        </mxCell>
        <mxCell id="AzQNed1N8ElNNBdo4Fju-198" value="&lt;span style=&quot;font-size: 11px;&quot;&gt;否&lt;/span&gt;" style="rounded=0;whiteSpace=wrap;html=1;gradientColor=default;fillColor=none;strokeColor=none;fontSize=9;align=left;" parent="WIyWlLk6GJQsqaUBKTNV-1" vertex="1">
          <mxGeometry x="-456" y="1012" width="25" height="30" as="geometry" />
        </mxCell>
        <mxCell id="AzQNed1N8ElNNBdo4Fju-199" value="&lt;font color=&quot;#ff0000&quot;&gt;TODO&lt;/font&gt;" style="rounded=1;whiteSpace=wrap;html=1;fontSize=12;glass=0;strokeWidth=1;shadow=0;" parent="WIyWlLk6GJQsqaUBKTNV-1" vertex="1">
          <mxGeometry x="-355" y="975" width="70" height="40" as="geometry" />
        </mxCell>
        <mxCell id="AzQNed1N8ElNNBdo4Fju-201" value="&lt;span style=&quot;font-size: 11px;&quot;&gt;否&lt;/span&gt;" style="rounded=0;whiteSpace=wrap;html=1;gradientColor=default;fillColor=none;strokeColor=none;fontSize=9;align=left;" parent="WIyWlLk6GJQsqaUBKTNV-1" vertex="1">
          <mxGeometry x="-631" y="940" width="25" height="30" as="geometry" />
        </mxCell>
        <mxCell id="AzQNed1N8ElNNBdo4Fju-207" value="&lt;span style=&quot;font-size: 11px;&quot;&gt;是&lt;/span&gt;" style="rounded=0;whiteSpace=wrap;html=1;gradientColor=default;fillColor=none;strokeColor=none;fontSize=9;align=left;" parent="WIyWlLk6GJQsqaUBKTNV-1" vertex="1">
          <mxGeometry x="-385" y="960" width="25" height="30" as="geometry" />
        </mxCell>
        <mxCell id="AzQNed1N8ElNNBdo4Fju-216" style="edgeStyle=orthogonalEdgeStyle;rounded=0;orthogonalLoop=1;jettySize=auto;html=1;exitX=0.5;exitY=1;exitDx=0;exitDy=0;entryX=0.5;entryY=0;entryDx=0;entryDy=0;" parent="WIyWlLk6GJQsqaUBKTNV-1" source="AzQNed1N8ElNNBdo4Fju-212" target="AzQNed1N8ElNNBdo4Fju-222" edge="1">
          <mxGeometry relative="1" as="geometry">
            <mxPoint x="445.75" y="815.5" as="targetPoint" />
          </mxGeometry>
        </mxCell>
        <mxCell id="AzQNed1N8ElNNBdo4Fju-212" value="&lt;b&gt;Line/LineSeg&lt;/b&gt;" style="rounded=1;whiteSpace=wrap;html=1;fontSize=12;glass=0;strokeWidth=1;shadow=0;" parent="WIyWlLk6GJQsqaUBKTNV-1" vertex="1">
          <mxGeometry x="405.75" y="752.5" width="84" height="40" as="geometry" />
        </mxCell>
        <mxCell id="AzQNed1N8ElNNBdo4Fju-218" value="&lt;span style=&quot;font-size: 11px;&quot;&gt;是&lt;/span&gt;" style="rounded=0;whiteSpace=wrap;html=1;gradientColor=default;fillColor=none;strokeColor=none;fontSize=9;align=left;" parent="WIyWlLk6GJQsqaUBKTNV-1" vertex="1">
          <mxGeometry x="456.75" y="945.5" width="25" height="30" as="geometry" />
        </mxCell>
        <mxCell id="AzQNed1N8ElNNBdo4Fju-225" value="" style="edgeStyle=orthogonalEdgeStyle;rounded=0;orthogonalLoop=1;jettySize=auto;html=1;" parent="WIyWlLk6GJQsqaUBKTNV-1" source="AzQNed1N8ElNNBdo4Fju-221" target="AzQNed1N8ElNNBdo4Fju-224" edge="1">
          <mxGeometry relative="1" as="geometry" />
        </mxCell>
        <mxCell id="AzQNed1N8ElNNBdo4Fju-227" value="" style="edgeStyle=orthogonalEdgeStyle;rounded=0;orthogonalLoop=1;jettySize=auto;html=1;" parent="WIyWlLk6GJQsqaUBKTNV-1" source="AzQNed1N8ElNNBdo4Fju-221" target="AzQNed1N8ElNNBdo4Fju-226" edge="1">
          <mxGeometry relative="1" as="geometry" />
        </mxCell>
        <mxCell id="AzQNed1N8ElNNBdo4Fju-221" value="crv.Dir()是否与&lt;br&gt;cylinder的轴线平行？" style="rhombus;whiteSpace=wrap;html=1;shadow=0;fontFamily=Helvetica;fontSize=12;align=center;strokeWidth=1;spacing=6;spacingTop=-4;" parent="WIyWlLk6GJQsqaUBKTNV-1" vertex="1">
          <mxGeometry x="372.75" y="891" width="150" height="55" as="geometry" />
        </mxCell>
        <mxCell id="AzQNed1N8ElNNBdo4Fju-223" value="" style="edgeStyle=orthogonalEdgeStyle;rounded=0;orthogonalLoop=1;jettySize=auto;html=1;" parent="WIyWlLk6GJQsqaUBKTNV-1" source="AzQNed1N8ElNNBdo4Fju-222" target="AzQNed1N8ElNNBdo4Fju-221" edge="1">
          <mxGeometry relative="1" as="geometry" />
        </mxCell>
        <mxCell id="AzQNed1N8ElNNBdo4Fju-222" value="&lt;div style=&quot;&quot;&gt;&lt;span style=&quot;background-color: initial;&quot;&gt;计算start和end在cylinder上的最近点&lt;/span&gt;&lt;br&gt;&lt;/div&gt;" style="rounded=1;whiteSpace=wrap;html=1;fontSize=12;glass=0;strokeWidth=1;shadow=0;" parent="WIyWlLk6GJQsqaUBKTNV-1" vertex="1">
          <mxGeometry x="380.97" y="816.5" width="133.56" height="52" as="geometry" />
        </mxCell>
        <mxCell id="AzQNed1N8ElNNBdo4Fju-224" value="&lt;b&gt;result = { Line/LineSeg}&lt;/b&gt;" style="rounded=1;whiteSpace=wrap;html=1;fontSize=12;glass=0;strokeWidth=1;shadow=0;" parent="WIyWlLk6GJQsqaUBKTNV-1" vertex="1">
          <mxGeometry x="378.12" y="975.5" width="139.25" height="40" as="geometry" />
        </mxCell>
        <mxCell id="AzQNed1N8ElNNBdo4Fju-236" style="edgeStyle=orthogonalEdgeStyle;rounded=0;orthogonalLoop=1;jettySize=auto;html=1;exitX=1;exitY=0.5;exitDx=0;exitDy=0;entryX=0.5;entryY=0;entryDx=0;entryDy=0;" parent="WIyWlLk6GJQsqaUBKTNV-1" source="AzQNed1N8ElNNBdo4Fju-226" target="AzQNed1N8ElNNBdo4Fju-235" edge="1">
          <mxGeometry relative="1" as="geometry" />
        </mxCell>
        <mxCell id="12BlZwvMtsUTy5BmQ8GU-2" style="edgeStyle=orthogonalEdgeStyle;rounded=0;orthogonalLoop=1;jettySize=auto;html=1;exitX=0.5;exitY=1;exitDx=0;exitDy=0;" edge="1" parent="WIyWlLk6GJQsqaUBKTNV-1" source="AzQNed1N8ElNNBdo4Fju-226" target="AzQNed1N8ElNNBdo4Fju-233">
          <mxGeometry relative="1" as="geometry" />
        </mxCell>
        <mxCell id="AzQNed1N8ElNNBdo4Fju-226" value="crv.Dir()是否与&lt;br&gt;cylinder的轴线垂直？" style="rhombus;whiteSpace=wrap;html=1;shadow=0;fontFamily=Helvetica;fontSize=12;align=center;strokeWidth=1;spacing=6;spacingTop=-4;" parent="WIyWlLk6GJQsqaUBKTNV-1" vertex="1">
          <mxGeometry x="555.75" y="890.5" width="150" height="55" as="geometry" />
        </mxCell>
        <mxCell id="AzQNed1N8ElNNBdo4Fju-228" value="&lt;span style=&quot;font-size: 11px;&quot;&gt;否&lt;/span&gt;" style="rounded=0;whiteSpace=wrap;html=1;gradientColor=default;fillColor=none;strokeColor=none;fontSize=9;align=left;" parent="WIyWlLk6GJQsqaUBKTNV-1" vertex="1">
          <mxGeometry x="522.75" y="886" width="25" height="30" as="geometry" />
        </mxCell>
        <mxCell id="AzQNed1N8ElNNBdo4Fju-232" value="&lt;span style=&quot;font-size: 11px;&quot;&gt;是&lt;/span&gt;" style="rounded=0;whiteSpace=wrap;html=1;gradientColor=default;fillColor=none;strokeColor=none;fontSize=9;align=left;" parent="WIyWlLk6GJQsqaUBKTNV-1" vertex="1">
          <mxGeometry x="640.75" y="939.5" width="25" height="30" as="geometry" />
        </mxCell>
        <mxCell id="AzQNed1N8ElNNBdo4Fju-233" value="&lt;b&gt;result = { Arc}&lt;/b&gt;" style="rounded=1;whiteSpace=wrap;html=1;fontSize=12;glass=0;strokeWidth=1;shadow=0;" parent="WIyWlLk6GJQsqaUBKTNV-1" vertex="1">
          <mxGeometry x="580" y="975.5" width="100" height="40" as="geometry" />
        </mxCell>
        <mxCell id="AzQNed1N8ElNNBdo4Fju-235" value="&lt;b&gt;result = {SPCurve}&lt;br&gt;螺旋线&lt;br&gt;投影参数曲线为一直线&lt;br&gt;&lt;/b&gt;" style="rounded=1;whiteSpace=wrap;html=1;fontSize=12;glass=0;strokeWidth=1;shadow=0;" parent="WIyWlLk6GJQsqaUBKTNV-1" vertex="1">
          <mxGeometry x="700" y="975.5" width="150" height="57.5" as="geometry" />
        </mxCell>
        <mxCell id="AzQNed1N8ElNNBdo4Fju-237" value="&lt;span style=&quot;font-size: 11px;&quot;&gt;否&lt;/span&gt;" style="rounded=0;whiteSpace=wrap;html=1;gradientColor=default;fillColor=none;strokeColor=none;fontSize=9;align=left;" parent="WIyWlLk6GJQsqaUBKTNV-1" vertex="1">
          <mxGeometry x="714.75" y="886" width="25" height="30" as="geometry" />
        </mxCell>
        <mxCell id="AzQNed1N8ElNNBdo4Fju-242" value="" style="edgeStyle=orthogonalEdgeStyle;rounded=0;orthogonalLoop=1;jettySize=auto;html=1;" parent="WIyWlLk6GJQsqaUBKTNV-1" source="AzQNed1N8ElNNBdo4Fju-239" target="AzQNed1N8ElNNBdo4Fju-240" edge="1">
          <mxGeometry relative="1" as="geometry" />
        </mxCell>
        <mxCell id="AzQNed1N8ElNNBdo4Fju-239" value="&lt;b&gt;Circle/Ellipse&lt;br&gt;Arc/EllipticalArc&lt;/b&gt;" style="rounded=1;whiteSpace=wrap;html=1;fontSize=12;glass=0;strokeWidth=1;shadow=0;" parent="WIyWlLk6GJQsqaUBKTNV-1" vertex="1">
          <mxGeometry x="942" y="752.5" width="110" height="40" as="geometry" />
        </mxCell>
        <mxCell id="AzQNed1N8ElNNBdo4Fju-248" value="" style="edgeStyle=orthogonalEdgeStyle;rounded=0;orthogonalLoop=1;jettySize=auto;html=1;" parent="WIyWlLk6GJQsqaUBKTNV-1" source="AzQNed1N8ElNNBdo4Fju-240" target="AzQNed1N8ElNNBdo4Fju-247" edge="1">
          <mxGeometry relative="1" as="geometry" />
        </mxCell>
        <mxCell id="12BlZwvMtsUTy5BmQ8GU-6" value="" style="edgeStyle=orthogonalEdgeStyle;rounded=0;orthogonalLoop=1;jettySize=auto;html=1;" edge="1" parent="WIyWlLk6GJQsqaUBKTNV-1" source="AzQNed1N8ElNNBdo4Fju-240" target="12BlZwvMtsUTy5BmQ8GU-5">
          <mxGeometry relative="1" as="geometry" />
        </mxCell>
        <mxCell id="AzQNed1N8ElNNBdo4Fju-240" value="crv所在平面是否和cylinder的轴线共面？" style="rhombus;whiteSpace=wrap;html=1;shadow=0;fontFamily=Helvetica;fontSize=12;align=center;strokeWidth=1;spacing=6;spacingTop=-4;" parent="WIyWlLk6GJQsqaUBKTNV-1" vertex="1">
          <mxGeometry x="921.75" y="822.5" width="150" height="73" as="geometry" />
        </mxCell>
        <mxCell id="AzQNed1N8ElNNBdo4Fju-245" value="" style="edgeStyle=orthogonalEdgeStyle;rounded=0;orthogonalLoop=1;jettySize=auto;html=1;" parent="WIyWlLk6GJQsqaUBKTNV-1" source="AzQNed1N8ElNNBdo4Fju-241" target="AzQNed1N8ElNNBdo4Fju-244" edge="1">
          <mxGeometry relative="1" as="geometry" />
        </mxCell>
        <mxCell id="AzQNed1N8ElNNBdo4Fju-241" value="&lt;div style=&quot;&quot;&gt;计算crv.Origin()到轴线的最近点，并在crv上找到切方向与以上两点连线平行的两点，计算cylinder上这两点的最近点&lt;/div&gt;" style="rounded=1;whiteSpace=wrap;html=1;fontSize=12;glass=0;strokeWidth=1;shadow=0;" parent="WIyWlLk6GJQsqaUBKTNV-1" vertex="1">
          <mxGeometry x="912.86" y="1010" width="166.78" height="71.5" as="geometry" />
        </mxCell>
        <mxCell id="AzQNed1N8ElNNBdo4Fju-244" value="&lt;b&gt;result = { LineSeg}&lt;/b&gt;" style="rounded=1;whiteSpace=wrap;html=1;fontSize=12;glass=0;strokeWidth=1;shadow=0;" parent="WIyWlLk6GJQsqaUBKTNV-1" vertex="1">
          <mxGeometry x="926.6300000000001" y="1108" width="139.25" height="40" as="geometry" />
        </mxCell>
        <mxCell id="AzQNed1N8ElNNBdo4Fju-246" value="&lt;span style=&quot;font-size: 11px;&quot;&gt;是&lt;/span&gt;" style="rounded=0;whiteSpace=wrap;html=1;gradientColor=default;fillColor=none;strokeColor=none;fontSize=9;align=left;" parent="WIyWlLk6GJQsqaUBKTNV-1" vertex="1">
          <mxGeometry x="1006.75" y="892.5" width="25" height="30" as="geometry" />
        </mxCell>
        <mxCell id="AzQNed1N8ElNNBdo4Fju-257" style="edgeStyle=orthogonalEdgeStyle;rounded=0;orthogonalLoop=1;jettySize=auto;html=1;exitX=1;exitY=0.5;exitDx=0;exitDy=0;entryX=1;entryY=0.5;entryDx=0;entryDy=0;" parent="WIyWlLk6GJQsqaUBKTNV-1" source="AzQNed1N8ElNNBdo4Fju-247" target="12BlZwvMtsUTy5BmQ8GU-12" edge="1">
          <mxGeometry relative="1" as="geometry">
            <mxPoint x="1418.75" y="940.5" as="targetPoint" />
          </mxGeometry>
        </mxCell>
        <mxCell id="12BlZwvMtsUTy5BmQ8GU-18" value="" style="edgeStyle=orthogonalEdgeStyle;rounded=0;orthogonalLoop=1;jettySize=auto;html=1;" edge="1" parent="WIyWlLk6GJQsqaUBKTNV-1" source="AzQNed1N8ElNNBdo4Fju-247" target="12BlZwvMtsUTy5BmQ8GU-15">
          <mxGeometry relative="1" as="geometry" />
        </mxCell>
        <mxCell id="AzQNed1N8ElNNBdo4Fju-247" value="crv.Normal()是否和cylinder的轴线平行？" style="rhombus;whiteSpace=wrap;html=1;shadow=0;fontFamily=Helvetica;fontSize=12;align=center;strokeWidth=1;spacing=6;spacingTop=-4;" parent="WIyWlLk6GJQsqaUBKTNV-1" vertex="1">
          <mxGeometry x="1236.75" y="822.5" width="150" height="73" as="geometry" />
        </mxCell>
        <mxCell id="AzQNed1N8ElNNBdo4Fju-249" value="&lt;span style=&quot;font-size: 11px;&quot;&gt;否&lt;/span&gt;" style="rounded=0;whiteSpace=wrap;html=1;gradientColor=default;fillColor=none;strokeColor=none;fontSize=9;align=left;" parent="WIyWlLk6GJQsqaUBKTNV-1" vertex="1">
          <mxGeometry x="1071.75" y="827.5" width="25" height="30" as="geometry" />
        </mxCell>
        <mxCell id="AzQNed1N8ElNNBdo4Fju-252" value="&lt;span style=&quot;font-size: 11px;&quot;&gt;是&lt;/span&gt;" style="rounded=0;whiteSpace=wrap;html=1;gradientColor=default;fillColor=none;strokeColor=none;fontSize=9;align=left;" parent="WIyWlLk6GJQsqaUBKTNV-1" vertex="1">
          <mxGeometry x="1326.75" y="898.5" width="25" height="30" as="geometry" />
        </mxCell>
        <mxCell id="AzQNed1N8ElNNBdo4Fju-258" value="&lt;span style=&quot;font-size: 11px;&quot;&gt;否&lt;/span&gt;" style="rounded=0;whiteSpace=wrap;html=1;gradientColor=default;fillColor=none;strokeColor=none;fontSize=9;align=left;" parent="WIyWlLk6GJQsqaUBKTNV-1" vertex="1">
          <mxGeometry x="1386.75" y="827.5" width="25" height="30" as="geometry" />
        </mxCell>
        <mxCell id="12BlZwvMtsUTy5BmQ8GU-27" value="" style="edgeStyle=orthogonalEdgeStyle;rounded=0;orthogonalLoop=1;jettySize=auto;html=1;" edge="1" parent="WIyWlLk6GJQsqaUBKTNV-1" source="AzQNed1N8ElNNBdo4Fju-287" target="12BlZwvMtsUTy5BmQ8GU-26">
          <mxGeometry relative="1" as="geometry" />
        </mxCell>
        <mxCell id="AzQNed1N8ElNNBdo4Fju-287" value="&lt;b&gt;Line/LineSeg&lt;/b&gt;" style="rounded=1;whiteSpace=wrap;html=1;fontSize=12;glass=0;strokeWidth=1;shadow=0;" parent="WIyWlLk6GJQsqaUBKTNV-1" vertex="1">
          <mxGeometry x="405.74" y="1225.5" width="84" height="40" as="geometry" />
        </mxCell>
        <mxCell id="12BlZwvMtsUTy5BmQ8GU-35" value="" style="edgeStyle=orthogonalEdgeStyle;rounded=0;orthogonalLoop=1;jettySize=auto;html=1;" edge="1" parent="WIyWlLk6GJQsqaUBKTNV-1" source="AzQNed1N8ElNNBdo4Fju-288" target="AzQNed1N8ElNNBdo4Fju-292">
          <mxGeometry relative="1" as="geometry" />
        </mxCell>
        <mxCell id="12BlZwvMtsUTy5BmQ8GU-37" value="" style="edgeStyle=orthogonalEdgeStyle;rounded=0;orthogonalLoop=1;jettySize=auto;html=1;" edge="1" parent="WIyWlLk6GJQsqaUBKTNV-1" source="AzQNed1N8ElNNBdo4Fju-288" target="12BlZwvMtsUTy5BmQ8GU-36">
          <mxGeometry relative="1" as="geometry" />
        </mxCell>
        <mxCell id="AzQNed1N8ElNNBdo4Fju-288" value="crv.Dir()是否与&lt;br&gt;cone的轴线平行？||&lt;br&gt;与cone的母线平行？" style="rhombus;whiteSpace=wrap;html=1;shadow=0;fontFamily=Helvetica;fontSize=12;align=center;strokeWidth=1;spacing=6;spacingTop=-4;" parent="WIyWlLk6GJQsqaUBKTNV-1" vertex="1">
          <mxGeometry x="547.75" y="1358" width="150" height="55" as="geometry" />
        </mxCell>
        <mxCell id="AzQNed1N8ElNNBdo4Fju-292" value="&lt;b&gt;result = { Line/LineSeg}&lt;/b&gt;" style="rounded=1;whiteSpace=wrap;html=1;fontSize=12;glass=0;strokeWidth=1;shadow=0;" parent="WIyWlLk6GJQsqaUBKTNV-1" vertex="1">
          <mxGeometry x="553.12" y="1439" width="139.25" height="40" as="geometry" />
        </mxCell>
        <mxCell id="AzQNed1N8ElNNBdo4Fju-294" value="&lt;span style=&quot;font-size: 11px;&quot;&gt;是&lt;/span&gt;" style="rounded=0;whiteSpace=wrap;html=1;gradientColor=default;fillColor=none;strokeColor=none;fontSize=9;align=left;" parent="WIyWlLk6GJQsqaUBKTNV-1" vertex="1">
          <mxGeometry x="640" y="1406" width="25" height="30" as="geometry" />
        </mxCell>
        <mxCell id="AzQNed1N8ElNNBdo4Fju-297" value="&lt;span style=&quot;font-size: 11px;&quot;&gt;否&lt;/span&gt;" style="rounded=0;whiteSpace=wrap;html=1;gradientColor=default;fillColor=none;strokeColor=none;fontSize=9;align=left;" parent="WIyWlLk6GJQsqaUBKTNV-1" vertex="1">
          <mxGeometry x="522.75" y="1358" width="25" height="30" as="geometry" />
        </mxCell>
        <mxCell id="AzQNed1N8ElNNBdo4Fju-302" value="&lt;span style=&quot;font-size: 11px;&quot;&gt;是&lt;/span&gt;" style="rounded=0;whiteSpace=wrap;html=1;gradientColor=default;fillColor=none;strokeColor=none;fontSize=9;align=left;" parent="WIyWlLk6GJQsqaUBKTNV-1" vertex="1">
          <mxGeometry x="1190" y="1363" width="25" height="30" as="geometry" />
        </mxCell>
        <mxCell id="AzQNed1N8ElNNBdo4Fju-305" value="&lt;span style=&quot;font-size: 11px;&quot;&gt;否&lt;/span&gt;" style="rounded=0;whiteSpace=wrap;html=1;gradientColor=default;fillColor=none;strokeColor=none;fontSize=9;align=left;" parent="WIyWlLk6GJQsqaUBKTNV-1" vertex="1">
          <mxGeometry x="1079.64" y="1299" width="25" height="30" as="geometry" />
        </mxCell>
        <mxCell id="AzQNed1N8ElNNBdo4Fju-331" value="&lt;span style=&quot;font-size: 11px;&quot;&gt;否&lt;/span&gt;" style="rounded=0;whiteSpace=wrap;html=1;gradientColor=default;fillColor=none;strokeColor=none;fontSize=9;align=left;" parent="WIyWlLk6GJQsqaUBKTNV-1" vertex="1">
          <mxGeometry x="528.12" y="1724.5" width="25" height="30" as="geometry" />
        </mxCell>
        <mxCell id="12BlZwvMtsUTy5BmQ8GU-8" style="edgeStyle=orthogonalEdgeStyle;rounded=0;orthogonalLoop=1;jettySize=auto;html=1;exitX=0.5;exitY=1;exitDx=0;exitDy=0;entryX=0.5;entryY=0;entryDx=0;entryDy=0;" edge="1" parent="WIyWlLk6GJQsqaUBKTNV-1" source="12BlZwvMtsUTy5BmQ8GU-5" target="AzQNed1N8ElNNBdo4Fju-241">
          <mxGeometry relative="1" as="geometry" />
        </mxCell>
        <mxCell id="12BlZwvMtsUTy5BmQ8GU-13" style="edgeStyle=orthogonalEdgeStyle;rounded=0;orthogonalLoop=1;jettySize=auto;html=1;exitX=1;exitY=0.5;exitDx=0;exitDy=0;entryX=0.5;entryY=0;entryDx=0;entryDy=0;" edge="1" parent="WIyWlLk6GJQsqaUBKTNV-1" source="12BlZwvMtsUTy5BmQ8GU-5" target="12BlZwvMtsUTy5BmQ8GU-12">
          <mxGeometry relative="1" as="geometry" />
        </mxCell>
        <mxCell id="12BlZwvMtsUTy5BmQ8GU-5" value="crv.Normal()是否和cylinder的轴线垂直？" style="rhombus;whiteSpace=wrap;html=1;shadow=0;fontFamily=Helvetica;fontSize=12;align=center;strokeWidth=1;spacing=6;spacingTop=-4;" vertex="1" parent="WIyWlLk6GJQsqaUBKTNV-1">
          <mxGeometry x="921.25" y="916" width="150" height="73" as="geometry" />
        </mxCell>
        <mxCell id="12BlZwvMtsUTy5BmQ8GU-11" value="&lt;span style=&quot;font-size: 11px;&quot;&gt;是&lt;/span&gt;" style="rounded=0;whiteSpace=wrap;html=1;gradientColor=default;fillColor=none;strokeColor=none;fontSize=9;align=left;" vertex="1" parent="WIyWlLk6GJQsqaUBKTNV-1">
          <mxGeometry x="1006.75" y="980" width="25" height="30" as="geometry" />
        </mxCell>
        <mxCell id="12BlZwvMtsUTy5BmQ8GU-20" value="" style="edgeStyle=orthogonalEdgeStyle;rounded=0;orthogonalLoop=1;jettySize=auto;html=1;" edge="1" parent="WIyWlLk6GJQsqaUBKTNV-1" source="12BlZwvMtsUTy5BmQ8GU-12" target="12BlZwvMtsUTy5BmQ8GU-19">
          <mxGeometry relative="1" as="geometry" />
        </mxCell>
        <mxCell id="12BlZwvMtsUTy5BmQ8GU-12" value="离散crv&lt;br&gt;计算离散点集的最近点&lt;br&gt;拟合为SPCurve" style="rounded=1;whiteSpace=wrap;html=1;fontSize=12;glass=0;strokeWidth=1;shadow=0;" vertex="1" parent="WIyWlLk6GJQsqaUBKTNV-1">
          <mxGeometry x="1112.75" y="1015" width="134.12" height="55.75" as="geometry" />
        </mxCell>
        <mxCell id="12BlZwvMtsUTy5BmQ8GU-14" value="&lt;span style=&quot;font-size: 11px;&quot;&gt;否&lt;/span&gt;" style="rounded=0;whiteSpace=wrap;html=1;gradientColor=default;fillColor=none;strokeColor=none;fontSize=9;align=left;" vertex="1" parent="WIyWlLk6GJQsqaUBKTNV-1">
          <mxGeometry x="1079.64" y="922.5" width="25" height="30" as="geometry" />
        </mxCell>
        <mxCell id="12BlZwvMtsUTy5BmQ8GU-15" value="&lt;b&gt;result = { Circle/Arc}&lt;/b&gt;" style="rounded=1;whiteSpace=wrap;html=1;fontSize=12;glass=0;strokeWidth=1;shadow=0;" vertex="1" parent="WIyWlLk6GJQsqaUBKTNV-1">
          <mxGeometry x="1242.13" y="928.5" width="139.25" height="40" as="geometry" />
        </mxCell>
        <mxCell id="12BlZwvMtsUTy5BmQ8GU-19" value="&lt;b&gt;result = { SPCurve}&lt;/b&gt;" style="rounded=1;whiteSpace=wrap;html=1;fontSize=12;glass=0;strokeWidth=1;shadow=0;" vertex="1" parent="WIyWlLk6GJQsqaUBKTNV-1">
          <mxGeometry x="1110.19" y="1108" width="139.25" height="40" as="geometry" />
        </mxCell>
        <mxCell id="12BlZwvMtsUTy5BmQ8GU-23" style="edgeStyle=orthogonalEdgeStyle;rounded=0;orthogonalLoop=1;jettySize=auto;html=1;exitX=0.5;exitY=1;exitDx=0;exitDy=0;entryX=1;entryY=0.5;entryDx=0;entryDy=0;" edge="1" parent="WIyWlLk6GJQsqaUBKTNV-1" source="12BlZwvMtsUTy5BmQ8GU-21" target="12BlZwvMtsUTy5BmQ8GU-12">
          <mxGeometry relative="1" as="geometry" />
        </mxCell>
        <mxCell id="12BlZwvMtsUTy5BmQ8GU-21" value="&lt;b&gt;BSCurve/IntCurve/SPCurve&lt;/b&gt;" style="rounded=1;whiteSpace=wrap;html=1;fontSize=12;glass=0;strokeWidth=1;shadow=0;" vertex="1" parent="WIyWlLk6GJQsqaUBKTNV-1">
          <mxGeometry x="1411.75" y="752.5" width="160" height="40" as="geometry" />
        </mxCell>
        <mxCell id="12BlZwvMtsUTy5BmQ8GU-29" style="edgeStyle=orthogonalEdgeStyle;rounded=0;orthogonalLoop=1;jettySize=auto;html=1;exitX=0.5;exitY=1;exitDx=0;exitDy=0;entryX=0.5;entryY=0;entryDx=0;entryDy=0;" edge="1" parent="WIyWlLk6GJQsqaUBKTNV-1" source="12BlZwvMtsUTy5BmQ8GU-26" target="12BlZwvMtsUTy5BmQ8GU-28">
          <mxGeometry relative="1" as="geometry" />
        </mxCell>
        <mxCell id="12BlZwvMtsUTy5BmQ8GU-26" value="&lt;div style=&quot;&quot;&gt;&lt;span style=&quot;background-color: initial;&quot;&gt;计算start和end在&lt;/span&gt;&lt;/div&gt;&lt;div style=&quot;&quot;&gt;&lt;span style=&quot;background-color: initial;&quot;&gt;cone上的最近点&lt;/span&gt;&lt;br&gt;&lt;/div&gt;" style="rounded=1;whiteSpace=wrap;html=1;fontSize=12;glass=0;strokeWidth=1;shadow=0;" vertex="1" parent="WIyWlLk6GJQsqaUBKTNV-1">
          <mxGeometry x="391.37" y="1288" width="112.78" height="52" as="geometry" />
        </mxCell>
        <mxCell id="12BlZwvMtsUTy5BmQ8GU-32" value="" style="edgeStyle=orthogonalEdgeStyle;rounded=0;orthogonalLoop=1;jettySize=auto;html=1;" edge="1" parent="WIyWlLk6GJQsqaUBKTNV-1" source="12BlZwvMtsUTy5BmQ8GU-28" target="12BlZwvMtsUTy5BmQ8GU-30">
          <mxGeometry relative="1" as="geometry" />
        </mxCell>
        <mxCell id="12BlZwvMtsUTy5BmQ8GU-34" value="" style="edgeStyle=orthogonalEdgeStyle;rounded=0;orthogonalLoop=1;jettySize=auto;html=1;" edge="1" parent="WIyWlLk6GJQsqaUBKTNV-1" source="12BlZwvMtsUTy5BmQ8GU-28" target="AzQNed1N8ElNNBdo4Fju-288">
          <mxGeometry relative="1" as="geometry" />
        </mxCell>
        <mxCell id="12BlZwvMtsUTy5BmQ8GU-28" value="start和end的在cone上的最近点是否重合？" style="rhombus;whiteSpace=wrap;html=1;shadow=0;fontFamily=Helvetica;fontSize=12;align=center;strokeWidth=1;spacing=6;spacingTop=-4;" vertex="1" parent="WIyWlLk6GJQsqaUBKTNV-1">
          <mxGeometry x="372.76" y="1358" width="150" height="55" as="geometry" />
        </mxCell>
        <mxCell id="12BlZwvMtsUTy5BmQ8GU-30" value="&lt;b&gt;result = { Point }&lt;/b&gt;" style="rounded=1;whiteSpace=wrap;html=1;fontSize=12;glass=0;strokeWidth=1;shadow=0;" vertex="1" parent="WIyWlLk6GJQsqaUBKTNV-1">
          <mxGeometry x="378.12" y="1439" width="139.25" height="40" as="geometry" />
        </mxCell>
        <mxCell id="12BlZwvMtsUTy5BmQ8GU-31" value="&lt;span style=&quot;font-size: 11px;&quot;&gt;是&lt;/span&gt;" style="rounded=0;whiteSpace=wrap;html=1;gradientColor=default;fillColor=none;strokeColor=none;fontSize=9;align=left;" vertex="1" parent="WIyWlLk6GJQsqaUBKTNV-1">
          <mxGeometry x="463" y="1406" width="25" height="30" as="geometry" />
        </mxCell>
        <mxCell id="12BlZwvMtsUTy5BmQ8GU-40" value="" style="edgeStyle=orthogonalEdgeStyle;rounded=0;orthogonalLoop=1;jettySize=auto;html=1;" edge="1" parent="WIyWlLk6GJQsqaUBKTNV-1" source="12BlZwvMtsUTy5BmQ8GU-36" target="12BlZwvMtsUTy5BmQ8GU-39">
          <mxGeometry relative="1" as="geometry" />
        </mxCell>
        <mxCell id="12BlZwvMtsUTy5BmQ8GU-36" value="离散crv&lt;br&gt;计算离散点集的最近点&lt;br&gt;拟合为SPCurve" style="rounded=1;whiteSpace=wrap;html=1;fontSize=12;glass=0;strokeWidth=1;shadow=0;" vertex="1" parent="WIyWlLk6GJQsqaUBKTNV-1">
          <mxGeometry x="738.25" y="1357.25" width="134.12" height="55.75" as="geometry" />
        </mxCell>
        <mxCell id="12BlZwvMtsUTy5BmQ8GU-38" value="&lt;span style=&quot;font-size: 11px;&quot;&gt;否&lt;/span&gt;" style="rounded=0;whiteSpace=wrap;html=1;gradientColor=default;fillColor=none;strokeColor=none;fontSize=9;align=left;" vertex="1" parent="WIyWlLk6GJQsqaUBKTNV-1">
          <mxGeometry x="702.25" y="1357.25" width="25" height="30" as="geometry" />
        </mxCell>
        <mxCell id="12BlZwvMtsUTy5BmQ8GU-39" value="&lt;b&gt;result = { SPCurve}&lt;/b&gt;" style="rounded=1;whiteSpace=wrap;html=1;fontSize=12;glass=0;strokeWidth=1;shadow=0;" vertex="1" parent="WIyWlLk6GJQsqaUBKTNV-1">
          <mxGeometry x="735.6800000000001" y="1439" width="139.25" height="40" as="geometry" />
        </mxCell>
        <mxCell id="12BlZwvMtsUTy5BmQ8GU-43" value="" style="edgeStyle=orthogonalEdgeStyle;rounded=0;orthogonalLoop=1;jettySize=auto;html=1;" edge="1" parent="WIyWlLk6GJQsqaUBKTNV-1" source="12BlZwvMtsUTy5BmQ8GU-41" target="12BlZwvMtsUTy5BmQ8GU-42">
          <mxGeometry relative="1" as="geometry" />
        </mxCell>
        <mxCell id="12BlZwvMtsUTy5BmQ8GU-41" value="&lt;b&gt;Circle/Ellipse&lt;br&gt;Arc/EllipticalArc&lt;/b&gt;" style="rounded=1;whiteSpace=wrap;html=1;fontSize=12;glass=0;strokeWidth=1;shadow=0;" vertex="1" parent="WIyWlLk6GJQsqaUBKTNV-1">
          <mxGeometry x="942" y="1225.5" width="110" height="40" as="geometry" />
        </mxCell>
        <mxCell id="12BlZwvMtsUTy5BmQ8GU-45" value="" style="edgeStyle=orthogonalEdgeStyle;rounded=0;orthogonalLoop=1;jettySize=auto;html=1;" edge="1" parent="WIyWlLk6GJQsqaUBKTNV-1" source="12BlZwvMtsUTy5BmQ8GU-42" target="12BlZwvMtsUTy5BmQ8GU-44">
          <mxGeometry relative="1" as="geometry" />
        </mxCell>
        <mxCell id="12BlZwvMtsUTy5BmQ8GU-48" value="" style="edgeStyle=orthogonalEdgeStyle;rounded=0;orthogonalLoop=1;jettySize=auto;html=1;" edge="1" parent="WIyWlLk6GJQsqaUBKTNV-1" source="12BlZwvMtsUTy5BmQ8GU-42" target="12BlZwvMtsUTy5BmQ8GU-47">
          <mxGeometry relative="1" as="geometry" />
        </mxCell>
        <mxCell id="12BlZwvMtsUTy5BmQ8GU-42" value="crv所在平面是否和&lt;br&gt;cone的轴线共面？" style="rhombus;whiteSpace=wrap;html=1;shadow=0;fontFamily=Helvetica;fontSize=12;align=center;strokeWidth=1;spacing=6;spacingTop=-4;" vertex="1" parent="WIyWlLk6GJQsqaUBKTNV-1">
          <mxGeometry x="921.25" y="1290" width="151" height="73" as="geometry" />
        </mxCell>
        <mxCell id="12BlZwvMtsUTy5BmQ8GU-44" value="&lt;b&gt;result = { Line/LineSeg}&lt;/b&gt;" style="rounded=1;whiteSpace=wrap;html=1;fontSize=12;glass=0;strokeWidth=1;shadow=0;" vertex="1" parent="WIyWlLk6GJQsqaUBKTNV-1">
          <mxGeometry x="926.63" y="1436" width="139.25" height="40" as="geometry" />
        </mxCell>
        <mxCell id="12BlZwvMtsUTy5BmQ8GU-46" value="&lt;span style=&quot;font-size: 11px;&quot;&gt;是&lt;/span&gt;" style="rounded=0;whiteSpace=wrap;html=1;gradientColor=default;fillColor=none;strokeColor=none;fontSize=9;align=left;" vertex="1" parent="WIyWlLk6GJQsqaUBKTNV-1">
          <mxGeometry x="1006.75" y="1363" width="25" height="30" as="geometry" />
        </mxCell>
        <mxCell id="12BlZwvMtsUTy5BmQ8GU-50" value="" style="edgeStyle=orthogonalEdgeStyle;rounded=0;orthogonalLoop=1;jettySize=auto;html=1;" edge="1" parent="WIyWlLk6GJQsqaUBKTNV-1" source="12BlZwvMtsUTy5BmQ8GU-47" target="12BlZwvMtsUTy5BmQ8GU-49">
          <mxGeometry relative="1" as="geometry" />
        </mxCell>
        <mxCell id="12BlZwvMtsUTy5BmQ8GU-52" value="" style="edgeStyle=orthogonalEdgeStyle;rounded=0;orthogonalLoop=1;jettySize=auto;html=1;" edge="1" parent="WIyWlLk6GJQsqaUBKTNV-1" source="12BlZwvMtsUTy5BmQ8GU-47" target="12BlZwvMtsUTy5BmQ8GU-51">
          <mxGeometry relative="1" as="geometry" />
        </mxCell>
        <mxCell id="12BlZwvMtsUTy5BmQ8GU-47" value="crv的dir是否和&lt;br&gt;cone的轴线重合？" style="rhombus;whiteSpace=wrap;html=1;shadow=0;fontFamily=Helvetica;fontSize=12;align=center;strokeWidth=1;spacing=6;spacingTop=-4;" vertex="1" parent="WIyWlLk6GJQsqaUBKTNV-1">
          <mxGeometry x="1104.6399999999999" y="1290" width="151" height="73" as="geometry" />
        </mxCell>
        <mxCell id="12BlZwvMtsUTy5BmQ8GU-49" value="&lt;b&gt;result = { Circle/Arc}&lt;/b&gt;" style="rounded=1;whiteSpace=wrap;html=1;fontSize=12;glass=0;strokeWidth=1;shadow=0;" vertex="1" parent="WIyWlLk6GJQsqaUBKTNV-1">
          <mxGeometry x="1110.5100000000002" y="1436" width="139.25" height="40" as="geometry" />
        </mxCell>
        <mxCell id="12BlZwvMtsUTy5BmQ8GU-55" value="" style="edgeStyle=orthogonalEdgeStyle;rounded=0;orthogonalLoop=1;jettySize=auto;html=1;" edge="1" parent="WIyWlLk6GJQsqaUBKTNV-1" source="12BlZwvMtsUTy5BmQ8GU-51" target="12BlZwvMtsUTy5BmQ8GU-54">
          <mxGeometry relative="1" as="geometry" />
        </mxCell>
        <mxCell id="12BlZwvMtsUTy5BmQ8GU-57" style="edgeStyle=orthogonalEdgeStyle;rounded=0;orthogonalLoop=1;jettySize=auto;html=1;exitX=1;exitY=0.5;exitDx=0;exitDy=0;entryX=1;entryY=0.5;entryDx=0;entryDy=0;" edge="1" parent="WIyWlLk6GJQsqaUBKTNV-1" source="12BlZwvMtsUTy5BmQ8GU-51" target="12BlZwvMtsUTy5BmQ8GU-36">
          <mxGeometry relative="1" as="geometry">
            <Array as="points">
              <mxPoint x="1461" y="1327" />
              <mxPoint x="1461" y="1500" />
              <mxPoint x="900" y="1500" />
              <mxPoint x="900" y="1385" />
            </Array>
          </mxGeometry>
        </mxCell>
        <mxCell id="12BlZwvMtsUTy5BmQ8GU-51" value="crv的dir是否和&lt;br&gt;cone的母线平行？" style="rhombus;whiteSpace=wrap;html=1;shadow=0;fontFamily=Helvetica;fontSize=12;align=center;strokeWidth=1;spacing=6;spacingTop=-4;" vertex="1" parent="WIyWlLk6GJQsqaUBKTNV-1">
          <mxGeometry x="1290" y="1290" width="151" height="73" as="geometry" />
        </mxCell>
        <mxCell id="12BlZwvMtsUTy5BmQ8GU-53" value="&lt;span style=&quot;font-size: 11px;&quot;&gt;否&lt;/span&gt;" style="rounded=0;whiteSpace=wrap;html=1;gradientColor=default;fillColor=none;strokeColor=none;fontSize=9;align=left;" vertex="1" parent="WIyWlLk6GJQsqaUBKTNV-1">
          <mxGeometry x="1259" y="1299" width="25" height="30" as="geometry" />
        </mxCell>
        <mxCell id="12BlZwvMtsUTy5BmQ8GU-54" value="&lt;b&gt;result = { Arc}&lt;/b&gt;" style="rounded=1;whiteSpace=wrap;html=1;fontSize=12;glass=0;strokeWidth=1;shadow=0;" vertex="1" parent="WIyWlLk6GJQsqaUBKTNV-1">
          <mxGeometry x="1295.8700000000003" y="1436" width="139.25" height="40" as="geometry" />
        </mxCell>
        <mxCell id="12BlZwvMtsUTy5BmQ8GU-56" value="&lt;span style=&quot;font-size: 11px;&quot;&gt;是&lt;/span&gt;" style="rounded=0;whiteSpace=wrap;html=1;gradientColor=default;fillColor=none;strokeColor=none;fontSize=9;align=left;" vertex="1" parent="WIyWlLk6GJQsqaUBKTNV-1">
          <mxGeometry x="1374" y="1363" width="25" height="30" as="geometry" />
        </mxCell>
        <mxCell id="12BlZwvMtsUTy5BmQ8GU-58" value="&lt;span style=&quot;font-size: 11px;&quot;&gt;否&lt;/span&gt;" style="rounded=0;whiteSpace=wrap;html=1;gradientColor=default;fillColor=none;strokeColor=none;fontSize=9;align=left;" vertex="1" parent="WIyWlLk6GJQsqaUBKTNV-1">
          <mxGeometry x="1441" y="1299" width="25" height="30" as="geometry" />
        </mxCell>
        <mxCell id="12BlZwvMtsUTy5BmQ8GU-62" style="edgeStyle=orthogonalEdgeStyle;rounded=0;orthogonalLoop=1;jettySize=auto;html=1;exitX=0.5;exitY=1;exitDx=0;exitDy=0;entryX=1;entryY=0.5;entryDx=0;entryDy=0;" edge="1" parent="WIyWlLk6GJQsqaUBKTNV-1" source="12BlZwvMtsUTy5BmQ8GU-60" target="12BlZwvMtsUTy5BmQ8GU-36">
          <mxGeometry relative="1" as="geometry">
            <Array as="points">
              <mxPoint x="1500" y="1500" />
              <mxPoint x="900" y="1500" />
              <mxPoint x="900" y="1385" />
            </Array>
          </mxGeometry>
        </mxCell>
        <mxCell id="12BlZwvMtsUTy5BmQ8GU-60" value="&lt;b&gt;BSCurve/IntCurve/SPCurve&lt;/b&gt;" style="rounded=1;whiteSpace=wrap;html=1;fontSize=12;glass=0;strokeWidth=1;shadow=0;" vertex="1" parent="WIyWlLk6GJQsqaUBKTNV-1">
          <mxGeometry x="1420" y="1228" width="160" height="40" as="geometry" />
        </mxCell>
        <mxCell id="12BlZwvMtsUTy5BmQ8GU-63" value="&lt;b&gt;&lt;font color=&quot;#cc0000&quot; style=&quot;font-size: 14px;&quot;&gt;向Cone投影时要注意处理极值点的问题&lt;br&gt;TODO&lt;br&gt;&lt;/font&gt;&lt;/b&gt;" style="text;html=1;strokeColor=none;fillColor=none;align=center;verticalAlign=middle;whiteSpace=wrap;rounded=0;" vertex="1" parent="WIyWlLk6GJQsqaUBKTNV-1">
          <mxGeometry x="589" y="1221" width="253" height="47" as="geometry" />
        </mxCell>
        <mxCell id="12BlZwvMtsUTy5BmQ8GU-75" style="edgeStyle=orthogonalEdgeStyle;rounded=0;orthogonalLoop=1;jettySize=auto;html=1;exitX=0.5;exitY=0;exitDx=0;exitDy=0;entryX=0.5;entryY=0;entryDx=0;entryDy=0;" edge="1" parent="WIyWlLk6GJQsqaUBKTNV-1" source="12BlZwvMtsUTy5BmQ8GU-64" target="12BlZwvMtsUTy5BmQ8GU-65">
          <mxGeometry relative="1" as="geometry" />
        </mxCell>
        <mxCell id="12BlZwvMtsUTy5BmQ8GU-111" style="edgeStyle=orthogonalEdgeStyle;rounded=0;orthogonalLoop=1;jettySize=auto;html=1;exitX=0.5;exitY=0;exitDx=0;exitDy=0;entryX=0.5;entryY=0;entryDx=0;entryDy=0;" edge="1" parent="WIyWlLk6GJQsqaUBKTNV-1" source="12BlZwvMtsUTy5BmQ8GU-64" target="12BlZwvMtsUTy5BmQ8GU-91">
          <mxGeometry relative="1" as="geometry" />
        </mxCell>
        <mxCell id="12BlZwvMtsUTy5BmQ8GU-112" style="edgeStyle=orthogonalEdgeStyle;rounded=0;orthogonalLoop=1;jettySize=auto;html=1;exitX=0.5;exitY=0;exitDx=0;exitDy=0;entryX=0.5;entryY=0;entryDx=0;entryDy=0;" edge="1" parent="WIyWlLk6GJQsqaUBKTNV-1" source="12BlZwvMtsUTy5BmQ8GU-64" target="12BlZwvMtsUTy5BmQ8GU-109">
          <mxGeometry relative="1" as="geometry" />
        </mxCell>
        <mxCell id="12BlZwvMtsUTy5BmQ8GU-64" value="Torus" style="rounded=1;whiteSpace=wrap;html=1;fontSize=12;glass=0;strokeWidth=1;shadow=0;" vertex="1" parent="WIyWlLk6GJQsqaUBKTNV-1">
          <mxGeometry x="249.75" y="1579" width="70" height="40" as="geometry" />
        </mxCell>
        <mxCell id="12BlZwvMtsUTy5BmQ8GU-67" value="" style="edgeStyle=orthogonalEdgeStyle;rounded=0;orthogonalLoop=1;jettySize=auto;html=1;" edge="1" parent="WIyWlLk6GJQsqaUBKTNV-1" source="12BlZwvMtsUTy5BmQ8GU-65" target="12BlZwvMtsUTy5BmQ8GU-66">
          <mxGeometry relative="1" as="geometry" />
        </mxCell>
        <mxCell id="12BlZwvMtsUTy5BmQ8GU-65" value="&lt;b&gt;Line/LineSeg&lt;/b&gt;" style="rounded=1;whiteSpace=wrap;html=1;fontSize=12;glass=0;strokeWidth=1;shadow=0;" vertex="1" parent="WIyWlLk6GJQsqaUBKTNV-1">
          <mxGeometry x="405.76" y="1579" width="84" height="40" as="geometry" />
        </mxCell>
        <mxCell id="12BlZwvMtsUTy5BmQ8GU-69" value="" style="edgeStyle=orthogonalEdgeStyle;rounded=0;orthogonalLoop=1;jettySize=auto;html=1;" edge="1" parent="WIyWlLk6GJQsqaUBKTNV-1" source="12BlZwvMtsUTy5BmQ8GU-66" target="12BlZwvMtsUTy5BmQ8GU-68">
          <mxGeometry relative="1" as="geometry" />
        </mxCell>
        <mxCell id="12BlZwvMtsUTy5BmQ8GU-66" value="&lt;div style=&quot;&quot;&gt;&lt;span style=&quot;background-color: initial;&quot;&gt;计算start和end在&lt;/span&gt;&lt;/div&gt;&lt;div style=&quot;&quot;&gt;&lt;span style=&quot;background-color: initial;&quot;&gt;torus上的最近点&lt;/span&gt;&lt;br&gt;&lt;/div&gt;" style="rounded=1;whiteSpace=wrap;html=1;fontSize=12;glass=0;strokeWidth=1;shadow=0;" vertex="1" parent="WIyWlLk6GJQsqaUBKTNV-1">
          <mxGeometry x="390.47" y="1647" width="114.54" height="52" as="geometry" />
        </mxCell>
        <mxCell id="12BlZwvMtsUTy5BmQ8GU-71" value="" style="edgeStyle=orthogonalEdgeStyle;rounded=0;orthogonalLoop=1;jettySize=auto;html=1;" edge="1" parent="WIyWlLk6GJQsqaUBKTNV-1" source="12BlZwvMtsUTy5BmQ8GU-68" target="12BlZwvMtsUTy5BmQ8GU-70">
          <mxGeometry relative="1" as="geometry" />
        </mxCell>
        <mxCell id="12BlZwvMtsUTy5BmQ8GU-74" value="" style="edgeStyle=orthogonalEdgeStyle;rounded=0;orthogonalLoop=1;jettySize=auto;html=1;" edge="1" parent="WIyWlLk6GJQsqaUBKTNV-1" source="12BlZwvMtsUTy5BmQ8GU-68" target="12BlZwvMtsUTy5BmQ8GU-73">
          <mxGeometry relative="1" as="geometry" />
        </mxCell>
        <mxCell id="12BlZwvMtsUTy5BmQ8GU-68" value="start和end的在torus上的最近点是否重合？" style="rhombus;whiteSpace=wrap;html=1;shadow=0;fontFamily=Helvetica;fontSize=12;align=center;strokeWidth=1;spacing=6;spacingTop=-4;" vertex="1" parent="WIyWlLk6GJQsqaUBKTNV-1">
          <mxGeometry x="372.76" y="1724.5" width="150" height="55" as="geometry" />
        </mxCell>
        <mxCell id="12BlZwvMtsUTy5BmQ8GU-70" value="&lt;b&gt;result = { Point }&lt;/b&gt;" style="rounded=1;whiteSpace=wrap;html=1;fontSize=12;glass=0;strokeWidth=1;shadow=0;" vertex="1" parent="WIyWlLk6GJQsqaUBKTNV-1">
          <mxGeometry x="378.14" y="1811" width="139.25" height="40" as="geometry" />
        </mxCell>
        <mxCell id="12BlZwvMtsUTy5BmQ8GU-72" value="&lt;span style=&quot;font-size: 11px;&quot;&gt;是&lt;/span&gt;" style="rounded=0;whiteSpace=wrap;html=1;gradientColor=default;fillColor=none;strokeColor=none;fontSize=9;align=left;" vertex="1" parent="WIyWlLk6GJQsqaUBKTNV-1">
          <mxGeometry x="463" y="1776" width="25" height="30" as="geometry" />
        </mxCell>
        <mxCell id="12BlZwvMtsUTy5BmQ8GU-79" value="" style="edgeStyle=orthogonalEdgeStyle;rounded=0;orthogonalLoop=1;jettySize=auto;html=1;" edge="1" parent="WIyWlLk6GJQsqaUBKTNV-1" source="12BlZwvMtsUTy5BmQ8GU-73" target="12BlZwvMtsUTy5BmQ8GU-78">
          <mxGeometry relative="1" as="geometry" />
        </mxCell>
        <mxCell id="12BlZwvMtsUTy5BmQ8GU-82" value="" style="edgeStyle=orthogonalEdgeStyle;rounded=0;orthogonalLoop=1;jettySize=auto;html=1;" edge="1" parent="WIyWlLk6GJQsqaUBKTNV-1" source="12BlZwvMtsUTy5BmQ8GU-73" target="12BlZwvMtsUTy5BmQ8GU-81">
          <mxGeometry relative="1" as="geometry" />
        </mxCell>
        <mxCell id="12BlZwvMtsUTy5BmQ8GU-73" value="crv.Dir()是否与&lt;br&gt;torus的轴线共面？" style="rhombus;whiteSpace=wrap;html=1;shadow=0;fontFamily=Helvetica;fontSize=12;align=center;strokeWidth=1;spacing=6;spacingTop=-4;" vertex="1" parent="WIyWlLk6GJQsqaUBKTNV-1">
          <mxGeometry x="553.12" y="1724.5" width="150" height="55" as="geometry" />
        </mxCell>
        <mxCell id="12BlZwvMtsUTy5BmQ8GU-78" value="&lt;b&gt;result = { Arc }&lt;/b&gt;" style="rounded=1;whiteSpace=wrap;html=1;fontSize=12;glass=0;strokeWidth=1;shadow=0;" vertex="1" parent="WIyWlLk6GJQsqaUBKTNV-1">
          <mxGeometry x="558.49" y="1811" width="139.25" height="40" as="geometry" />
        </mxCell>
        <mxCell id="12BlZwvMtsUTy5BmQ8GU-80" value="&lt;span style=&quot;font-size: 11px;&quot;&gt;是&lt;/span&gt;" style="rounded=0;whiteSpace=wrap;html=1;gradientColor=default;fillColor=none;strokeColor=none;fontSize=9;align=left;" vertex="1" parent="WIyWlLk6GJQsqaUBKTNV-1">
          <mxGeometry x="640" y="1776" width="25" height="30" as="geometry" />
        </mxCell>
        <mxCell id="12BlZwvMtsUTy5BmQ8GU-84" style="edgeStyle=orthogonalEdgeStyle;rounded=0;orthogonalLoop=1;jettySize=auto;html=1;exitX=0.5;exitY=1;exitDx=0;exitDy=0;entryX=1;entryY=0.5;entryDx=0;entryDy=0;" edge="1" parent="WIyWlLk6GJQsqaUBKTNV-1" source="12BlZwvMtsUTy5BmQ8GU-81" target="12BlZwvMtsUTy5BmQ8GU-78">
          <mxGeometry relative="1" as="geometry" />
        </mxCell>
        <mxCell id="12BlZwvMtsUTy5BmQ8GU-88" value="" style="edgeStyle=orthogonalEdgeStyle;rounded=0;orthogonalLoop=1;jettySize=auto;html=1;" edge="1" parent="WIyWlLk6GJQsqaUBKTNV-1" source="12BlZwvMtsUTy5BmQ8GU-81" target="12BlZwvMtsUTy5BmQ8GU-86">
          <mxGeometry relative="1" as="geometry" />
        </mxCell>
        <mxCell id="12BlZwvMtsUTy5BmQ8GU-81" value="crv是否与&lt;br&gt;torus的profile共面？" style="rhombus;whiteSpace=wrap;html=1;shadow=0;fontFamily=Helvetica;fontSize=12;align=center;strokeWidth=1;spacing=6;spacingTop=-4;" vertex="1" parent="WIyWlLk6GJQsqaUBKTNV-1">
          <mxGeometry x="735.6800000000001" y="1724.5" width="150" height="55" as="geometry" />
        </mxCell>
        <mxCell id="12BlZwvMtsUTy5BmQ8GU-83" value="&lt;span style=&quot;font-size: 11px;&quot;&gt;否&lt;/span&gt;" style="rounded=0;whiteSpace=wrap;html=1;gradientColor=default;fillColor=none;strokeColor=none;fontSize=9;align=left;" vertex="1" parent="WIyWlLk6GJQsqaUBKTNV-1">
          <mxGeometry x="710.6800000000001" y="1724.5" width="25" height="30" as="geometry" />
        </mxCell>
        <mxCell id="12BlZwvMtsUTy5BmQ8GU-85" value="&lt;span style=&quot;font-size: 11px;&quot;&gt;是&lt;/span&gt;" style="rounded=0;whiteSpace=wrap;html=1;gradientColor=default;fillColor=none;strokeColor=none;fontSize=9;align=left;" vertex="1" parent="WIyWlLk6GJQsqaUBKTNV-1">
          <mxGeometry x="817" y="1779.5" width="25" height="30" as="geometry" />
        </mxCell>
        <mxCell id="12BlZwvMtsUTy5BmQ8GU-90" value="" style="edgeStyle=orthogonalEdgeStyle;rounded=0;orthogonalLoop=1;jettySize=auto;html=1;" edge="1" parent="WIyWlLk6GJQsqaUBKTNV-1" source="12BlZwvMtsUTy5BmQ8GU-86" target="12BlZwvMtsUTy5BmQ8GU-87">
          <mxGeometry relative="1" as="geometry" />
        </mxCell>
        <mxCell id="12BlZwvMtsUTy5BmQ8GU-86" value="离散crv&lt;br&gt;计算离散点集的最近点&lt;br&gt;拟合为SPCurve" style="rounded=1;whiteSpace=wrap;html=1;fontSize=12;glass=0;strokeWidth=1;shadow=0;" vertex="1" parent="WIyWlLk6GJQsqaUBKTNV-1">
          <mxGeometry x="917.88" y="1723.75" width="134.12" height="55.75" as="geometry" />
        </mxCell>
        <mxCell id="12BlZwvMtsUTy5BmQ8GU-87" value="&lt;b&gt;result = { SPCurve}&lt;/b&gt;" style="rounded=1;whiteSpace=wrap;html=1;fontSize=12;glass=0;strokeWidth=1;shadow=0;" vertex="1" parent="WIyWlLk6GJQsqaUBKTNV-1">
          <mxGeometry x="915.3200000000002" y="1811" width="139.25" height="40" as="geometry" />
        </mxCell>
        <mxCell id="12BlZwvMtsUTy5BmQ8GU-89" value="&lt;span style=&quot;font-size: 11px;&quot;&gt;否&lt;/span&gt;" style="rounded=0;whiteSpace=wrap;html=1;gradientColor=default;fillColor=none;strokeColor=none;fontSize=9;align=left;" vertex="1" parent="WIyWlLk6GJQsqaUBKTNV-1">
          <mxGeometry x="885.6800000000001" y="1723.75" width="25" height="30" as="geometry" />
        </mxCell>
        <mxCell id="12BlZwvMtsUTy5BmQ8GU-93" value="" style="edgeStyle=orthogonalEdgeStyle;rounded=0;orthogonalLoop=1;jettySize=auto;html=1;" edge="1" parent="WIyWlLk6GJQsqaUBKTNV-1" source="12BlZwvMtsUTy5BmQ8GU-91" target="12BlZwvMtsUTy5BmQ8GU-92">
          <mxGeometry relative="1" as="geometry" />
        </mxCell>
        <mxCell id="12BlZwvMtsUTy5BmQ8GU-91" value="&lt;b&gt;Circle/Ellipse&lt;br&gt;Arc/EllipticalArc&lt;/b&gt;" style="rounded=1;whiteSpace=wrap;html=1;fontSize=12;glass=0;strokeWidth=1;shadow=0;" vertex="1" parent="WIyWlLk6GJQsqaUBKTNV-1">
          <mxGeometry x="1112.75" y="1582" width="110" height="40" as="geometry" />
        </mxCell>
        <mxCell id="12BlZwvMtsUTy5BmQ8GU-95" value="" style="edgeStyle=orthogonalEdgeStyle;rounded=0;orthogonalLoop=1;jettySize=auto;html=1;" edge="1" parent="WIyWlLk6GJQsqaUBKTNV-1" source="12BlZwvMtsUTy5BmQ8GU-92" target="12BlZwvMtsUTy5BmQ8GU-94">
          <mxGeometry relative="1" as="geometry" />
        </mxCell>
        <mxCell id="12BlZwvMtsUTy5BmQ8GU-98" value="" style="edgeStyle=orthogonalEdgeStyle;rounded=0;orthogonalLoop=1;jettySize=auto;html=1;" edge="1" parent="WIyWlLk6GJQsqaUBKTNV-1" source="12BlZwvMtsUTy5BmQ8GU-92" target="12BlZwvMtsUTy5BmQ8GU-97">
          <mxGeometry relative="1" as="geometry" />
        </mxCell>
        <mxCell id="12BlZwvMtsUTy5BmQ8GU-92" value="crv.Dir()是否与&lt;br&gt;torus的轴线重合？" style="rhombus;whiteSpace=wrap;html=1;shadow=0;fontFamily=Helvetica;fontSize=12;align=center;strokeWidth=1;spacing=6;spacingTop=-4;" vertex="1" parent="WIyWlLk6GJQsqaUBKTNV-1">
          <mxGeometry x="1092.75" y="1649" width="150" height="55" as="geometry" />
        </mxCell>
        <mxCell id="12BlZwvMtsUTy5BmQ8GU-94" value="&lt;b&gt;result = { Circle/Arc}&lt;/b&gt;" style="rounded=1;whiteSpace=wrap;html=1;fontSize=12;glass=0;strokeWidth=1;shadow=0;" vertex="1" parent="WIyWlLk6GJQsqaUBKTNV-1">
          <mxGeometry x="1098.1200000000001" y="1811" width="139.25" height="40" as="geometry" />
        </mxCell>
        <mxCell id="12BlZwvMtsUTy5BmQ8GU-96" value="&lt;span style=&quot;font-size: 11px;&quot;&gt;是&lt;/span&gt;" style="rounded=0;whiteSpace=wrap;html=1;gradientColor=default;fillColor=none;strokeColor=none;fontSize=9;align=left;" vertex="1" parent="WIyWlLk6GJQsqaUBKTNV-1">
          <mxGeometry x="1180" y="1707" width="25" height="30" as="geometry" />
        </mxCell>
        <mxCell id="12BlZwvMtsUTy5BmQ8GU-101" value="" style="edgeStyle=orthogonalEdgeStyle;rounded=0;orthogonalLoop=1;jettySize=auto;html=1;" edge="1" parent="WIyWlLk6GJQsqaUBKTNV-1" source="12BlZwvMtsUTy5BmQ8GU-97" target="12BlZwvMtsUTy5BmQ8GU-100">
          <mxGeometry relative="1" as="geometry" />
        </mxCell>
        <mxCell id="12BlZwvMtsUTy5BmQ8GU-104" value="" style="edgeStyle=orthogonalEdgeStyle;rounded=0;orthogonalLoop=1;jettySize=auto;html=1;" edge="1" parent="WIyWlLk6GJQsqaUBKTNV-1" source="12BlZwvMtsUTy5BmQ8GU-97" target="12BlZwvMtsUTy5BmQ8GU-103">
          <mxGeometry relative="1" as="geometry" />
        </mxCell>
        <mxCell id="12BlZwvMtsUTy5BmQ8GU-97" value="crv是否与&lt;br&gt;torus的轴线共面？" style="rhombus;whiteSpace=wrap;html=1;shadow=0;fontFamily=Helvetica;fontSize=12;align=center;strokeWidth=1;spacing=6;spacingTop=-4;" vertex="1" parent="WIyWlLk6GJQsqaUBKTNV-1">
          <mxGeometry x="1270" y="1649" width="150" height="55" as="geometry" />
        </mxCell>
        <mxCell id="12BlZwvMtsUTy5BmQ8GU-99" value="&lt;span style=&quot;font-size: 11px;&quot;&gt;否&lt;/span&gt;" style="rounded=0;whiteSpace=wrap;html=1;gradientColor=default;fillColor=none;strokeColor=none;fontSize=9;align=left;" vertex="1" parent="WIyWlLk6GJQsqaUBKTNV-1">
          <mxGeometry x="1242.75" y="1647" width="25" height="30" as="geometry" />
        </mxCell>
        <mxCell id="12BlZwvMtsUTy5BmQ8GU-100" value="&lt;b&gt;result = { Arc}&lt;/b&gt;" style="rounded=1;whiteSpace=wrap;html=1;fontSize=12;glass=0;strokeWidth=1;shadow=0;" vertex="1" parent="WIyWlLk6GJQsqaUBKTNV-1">
          <mxGeometry x="1275.3700000000003" y="1811" width="139.25" height="40" as="geometry" />
        </mxCell>
        <mxCell id="12BlZwvMtsUTy5BmQ8GU-102" value="&lt;span style=&quot;font-size: 11px;&quot;&gt;是&lt;/span&gt;" style="rounded=0;whiteSpace=wrap;html=1;gradientColor=default;fillColor=none;strokeColor=none;fontSize=9;align=left;" vertex="1" parent="WIyWlLk6GJQsqaUBKTNV-1">
          <mxGeometry x="1353" y="1707" width="25" height="30" as="geometry" />
        </mxCell>
        <mxCell id="12BlZwvMtsUTy5BmQ8GU-106" style="edgeStyle=orthogonalEdgeStyle;rounded=0;orthogonalLoop=1;jettySize=auto;html=1;exitX=0.5;exitY=1;exitDx=0;exitDy=0;entryX=1;entryY=0.5;entryDx=0;entryDy=0;" edge="1" parent="WIyWlLk6GJQsqaUBKTNV-1" source="12BlZwvMtsUTy5BmQ8GU-103" target="12BlZwvMtsUTy5BmQ8GU-100">
          <mxGeometry relative="1" as="geometry" />
        </mxCell>
        <mxCell id="12BlZwvMtsUTy5BmQ8GU-108" style="edgeStyle=orthogonalEdgeStyle;rounded=0;orthogonalLoop=1;jettySize=auto;html=1;exitX=1;exitY=0.5;exitDx=0;exitDy=0;entryX=1;entryY=0.5;entryDx=0;entryDy=0;" edge="1" parent="WIyWlLk6GJQsqaUBKTNV-1" source="12BlZwvMtsUTy5BmQ8GU-103" target="12BlZwvMtsUTy5BmQ8GU-86">
          <mxGeometry relative="1" as="geometry">
            <Array as="points">
              <mxPoint x="1620" y="1677" />
              <mxPoint x="1620" y="1869" />
              <mxPoint x="1080" y="1869" />
              <mxPoint x="1080" y="1752" />
            </Array>
          </mxGeometry>
        </mxCell>
        <mxCell id="12BlZwvMtsUTy5BmQ8GU-103" value="crv是否与&lt;br&gt;torus的profile共面？" style="rhombus;whiteSpace=wrap;html=1;shadow=0;fontFamily=Helvetica;fontSize=12;align=center;strokeWidth=1;spacing=6;spacingTop=-4;" vertex="1" parent="WIyWlLk6GJQsqaUBKTNV-1">
          <mxGeometry x="1450" y="1649" width="150" height="55" as="geometry" />
        </mxCell>
        <mxCell id="12BlZwvMtsUTy5BmQ8GU-105" value="&lt;span style=&quot;font-size: 11px;&quot;&gt;否&lt;/span&gt;" style="rounded=0;whiteSpace=wrap;html=1;gradientColor=default;fillColor=none;strokeColor=none;fontSize=9;align=left;" vertex="1" parent="WIyWlLk6GJQsqaUBKTNV-1">
          <mxGeometry x="1420" y="1649" width="25" height="30" as="geometry" />
        </mxCell>
        <mxCell id="12BlZwvMtsUTy5BmQ8GU-107" value="&lt;span style=&quot;font-size: 11px;&quot;&gt;是&lt;/span&gt;" style="rounded=0;whiteSpace=wrap;html=1;gradientColor=default;fillColor=none;strokeColor=none;fontSize=9;align=left;" vertex="1" parent="WIyWlLk6GJQsqaUBKTNV-1">
          <mxGeometry x="1529.87" y="1704" width="25" height="30" as="geometry" />
        </mxCell>
        <mxCell id="12BlZwvMtsUTy5BmQ8GU-110" style="edgeStyle=orthogonalEdgeStyle;rounded=0;orthogonalLoop=1;jettySize=auto;html=1;exitX=0.5;exitY=1;exitDx=0;exitDy=0;entryX=1;entryY=0.5;entryDx=0;entryDy=0;" edge="1" parent="WIyWlLk6GJQsqaUBKTNV-1" source="12BlZwvMtsUTy5BmQ8GU-109" target="12BlZwvMtsUTy5BmQ8GU-86">
          <mxGeometry relative="1" as="geometry">
            <Array as="points">
              <mxPoint x="1670" y="1869" />
              <mxPoint x="1080" y="1869" />
              <mxPoint x="1080" y="1752" />
            </Array>
          </mxGeometry>
        </mxCell>
        <mxCell id="12BlZwvMtsUTy5BmQ8GU-109" value="&lt;b&gt;BSCurve/IntCurve/SPCurve&lt;/b&gt;" style="rounded=1;whiteSpace=wrap;html=1;fontSize=12;glass=0;strokeWidth=1;shadow=0;" vertex="1" parent="WIyWlLk6GJQsqaUBKTNV-1">
          <mxGeometry x="1590" y="1582" width="160" height="40" as="geometry" />
        </mxCell>
        <mxCell id="12BlZwvMtsUTy5BmQ8GU-131" style="edgeStyle=orthogonalEdgeStyle;rounded=0;orthogonalLoop=1;jettySize=auto;html=1;exitX=0.5;exitY=0;exitDx=0;exitDy=0;entryX=0.5;entryY=0;entryDx=0;entryDy=0;" edge="1" parent="WIyWlLk6GJQsqaUBKTNV-1" source="12BlZwvMtsUTy5BmQ8GU-113" target="12BlZwvMtsUTy5BmQ8GU-115">
          <mxGeometry relative="1" as="geometry" />
        </mxCell>
        <mxCell id="12BlZwvMtsUTy5BmQ8GU-132" style="edgeStyle=orthogonalEdgeStyle;rounded=0;orthogonalLoop=1;jettySize=auto;html=1;exitX=0.5;exitY=0;exitDx=0;exitDy=0;entryX=0.5;entryY=0;entryDx=0;entryDy=0;" edge="1" parent="WIyWlLk6GJQsqaUBKTNV-1" source="12BlZwvMtsUTy5BmQ8GU-113" target="12BlZwvMtsUTy5BmQ8GU-127">
          <mxGeometry relative="1" as="geometry" />
        </mxCell>
        <mxCell id="12BlZwvMtsUTy5BmQ8GU-133" style="edgeStyle=orthogonalEdgeStyle;rounded=0;orthogonalLoop=1;jettySize=auto;html=1;exitX=0.5;exitY=0;exitDx=0;exitDy=0;entryX=0.5;entryY=0;entryDx=0;entryDy=0;" edge="1" parent="WIyWlLk6GJQsqaUBKTNV-1" source="12BlZwvMtsUTy5BmQ8GU-113" target="12BlZwvMtsUTy5BmQ8GU-129">
          <mxGeometry relative="1" as="geometry" />
        </mxCell>
        <mxCell id="12BlZwvMtsUTy5BmQ8GU-113" value="Sphere" style="rounded=1;whiteSpace=wrap;html=1;fontSize=12;glass=0;strokeWidth=1;shadow=0;" vertex="1" parent="WIyWlLk6GJQsqaUBKTNV-1">
          <mxGeometry x="249.75" y="1940" width="70" height="40" as="geometry" />
        </mxCell>
        <mxCell id="12BlZwvMtsUTy5BmQ8GU-117" value="" style="edgeStyle=orthogonalEdgeStyle;rounded=0;orthogonalLoop=1;jettySize=auto;html=1;" edge="1" parent="WIyWlLk6GJQsqaUBKTNV-1" source="12BlZwvMtsUTy5BmQ8GU-115" target="12BlZwvMtsUTy5BmQ8GU-116">
          <mxGeometry relative="1" as="geometry" />
        </mxCell>
        <mxCell id="12BlZwvMtsUTy5BmQ8GU-115" value="&lt;b&gt;Line/LineSeg&lt;/b&gt;" style="rounded=1;whiteSpace=wrap;html=1;fontSize=12;glass=0;strokeWidth=1;shadow=0;" vertex="1" parent="WIyWlLk6GJQsqaUBKTNV-1">
          <mxGeometry x="397.75" y="1940" width="84" height="40" as="geometry" />
        </mxCell>
        <mxCell id="12BlZwvMtsUTy5BmQ8GU-119" value="" style="edgeStyle=orthogonalEdgeStyle;rounded=0;orthogonalLoop=1;jettySize=auto;html=1;" edge="1" parent="WIyWlLk6GJQsqaUBKTNV-1" source="12BlZwvMtsUTy5BmQ8GU-116" target="12BlZwvMtsUTy5BmQ8GU-118">
          <mxGeometry relative="1" as="geometry" />
        </mxCell>
        <mxCell id="12BlZwvMtsUTy5BmQ8GU-122" value="" style="edgeStyle=orthogonalEdgeStyle;rounded=0;orthogonalLoop=1;jettySize=auto;html=1;" edge="1" parent="WIyWlLk6GJQsqaUBKTNV-1" source="12BlZwvMtsUTy5BmQ8GU-116" target="12BlZwvMtsUTy5BmQ8GU-121">
          <mxGeometry relative="1" as="geometry" />
        </mxCell>
        <mxCell id="12BlZwvMtsUTy5BmQ8GU-116" value="sphere的origin&lt;br&gt;是否在line上？" style="rhombus;whiteSpace=wrap;html=1;shadow=0;fontFamily=Helvetica;fontSize=12;align=center;strokeWidth=1;spacing=6;spacingTop=-4;" vertex="1" parent="WIyWlLk6GJQsqaUBKTNV-1">
          <mxGeometry x="364.75" y="2007" width="150" height="55" as="geometry" />
        </mxCell>
        <mxCell id="12BlZwvMtsUTy5BmQ8GU-118" value="&lt;b&gt;result = { Point }&lt;/b&gt;" style="rounded=1;whiteSpace=wrap;html=1;fontSize=12;glass=0;strokeWidth=1;shadow=0;" vertex="1" parent="WIyWlLk6GJQsqaUBKTNV-1">
          <mxGeometry x="370.13" y="2090" width="139.25" height="40" as="geometry" />
        </mxCell>
        <mxCell id="12BlZwvMtsUTy5BmQ8GU-120" value="&lt;span style=&quot;font-size: 11px;&quot;&gt;是&lt;/span&gt;" style="rounded=0;whiteSpace=wrap;html=1;gradientColor=default;fillColor=none;strokeColor=none;fontSize=9;align=left;" vertex="1" parent="WIyWlLk6GJQsqaUBKTNV-1">
          <mxGeometry x="450" y="2060" width="25" height="30" as="geometry" />
        </mxCell>
        <mxCell id="12BlZwvMtsUTy5BmQ8GU-126" value="" style="edgeStyle=orthogonalEdgeStyle;rounded=0;orthogonalLoop=1;jettySize=auto;html=1;" edge="1" parent="WIyWlLk6GJQsqaUBKTNV-1" source="12BlZwvMtsUTy5BmQ8GU-121" target="12BlZwvMtsUTy5BmQ8GU-124">
          <mxGeometry relative="1" as="geometry" />
        </mxCell>
        <mxCell id="12BlZwvMtsUTy5BmQ8GU-121" value="离散crv&lt;br&gt;计算离散点集的最近点&lt;br&gt;拟合为SPCurve" style="rounded=1;whiteSpace=wrap;html=1;fontSize=12;glass=0;strokeWidth=1;shadow=0;" vertex="1" parent="WIyWlLk6GJQsqaUBKTNV-1">
          <mxGeometry x="553.12" y="2006.25" width="134.12" height="55.75" as="geometry" />
        </mxCell>
        <mxCell id="12BlZwvMtsUTy5BmQ8GU-123" value="&lt;span style=&quot;font-size: 11px;&quot;&gt;否&lt;/span&gt;" style="rounded=0;whiteSpace=wrap;html=1;gradientColor=default;fillColor=none;strokeColor=none;fontSize=9;align=left;" vertex="1" parent="WIyWlLk6GJQsqaUBKTNV-1">
          <mxGeometry x="517.3900000000001" y="2000" width="25" height="30" as="geometry" />
        </mxCell>
        <mxCell id="12BlZwvMtsUTy5BmQ8GU-124" value="&lt;b&gt;result = { SPCurve}&lt;/b&gt;" style="rounded=1;whiteSpace=wrap;html=1;fontSize=12;glass=0;strokeWidth=1;shadow=0;" vertex="1" parent="WIyWlLk6GJQsqaUBKTNV-1">
          <mxGeometry x="550.5600000000002" y="2090" width="139.25" height="40" as="geometry" />
        </mxCell>
        <mxCell id="12BlZwvMtsUTy5BmQ8GU-128" style="edgeStyle=orthogonalEdgeStyle;rounded=0;orthogonalLoop=1;jettySize=auto;html=1;exitX=0.5;exitY=1;exitDx=0;exitDy=0;entryX=1;entryY=0.5;entryDx=0;entryDy=0;" edge="1" parent="WIyWlLk6GJQsqaUBKTNV-1" source="12BlZwvMtsUTy5BmQ8GU-127" target="12BlZwvMtsUTy5BmQ8GU-121">
          <mxGeometry relative="1" as="geometry" />
        </mxCell>
        <mxCell id="12BlZwvMtsUTy5BmQ8GU-127" value="&lt;b&gt;Circle/Ellipse&lt;br&gt;Arc/EllipticalArc&lt;/b&gt;" style="rounded=1;whiteSpace=wrap;html=1;fontSize=12;glass=0;strokeWidth=1;shadow=0;" vertex="1" parent="WIyWlLk6GJQsqaUBKTNV-1">
          <mxGeometry x="774.5" y="1940" width="110" height="40" as="geometry" />
        </mxCell>
        <mxCell id="12BlZwvMtsUTy5BmQ8GU-130" style="edgeStyle=orthogonalEdgeStyle;rounded=0;orthogonalLoop=1;jettySize=auto;html=1;exitX=0.5;exitY=1;exitDx=0;exitDy=0;entryX=1;entryY=0.5;entryDx=0;entryDy=0;" edge="1" parent="WIyWlLk6GJQsqaUBKTNV-1" source="12BlZwvMtsUTy5BmQ8GU-129" target="12BlZwvMtsUTy5BmQ8GU-121">
          <mxGeometry relative="1" as="geometry" />
        </mxCell>
        <mxCell id="12BlZwvMtsUTy5BmQ8GU-129" value="&lt;b&gt;BSCurve/IntCurve/SPCurve&lt;/b&gt;" style="rounded=1;whiteSpace=wrap;html=1;fontSize=12;glass=0;strokeWidth=1;shadow=0;" vertex="1" parent="WIyWlLk6GJQsqaUBKTNV-1">
          <mxGeometry x="926.63" y="1940" width="160" height="40" as="geometry" />
        </mxCell>
      </root>
    </mxGraphModel>
  </diagram>
</mxfile>
